<mxfile host="app.diagrams.net" modified="2023-12-15T10:27:53.089Z" agent="Mozilla/5.0 (Macintosh; Intel Mac OS X 10_15_7) AppleWebKit/605.1.15 (KHTML, like Gecko) Version/17.0 Safari/605.1.15" etag="59SiJ1diXVx8ABKWcVlR" version="22.1.9" type="device">
  <diagram id="A_3Ec-HTA03_jD7FdvXA" name="Page-1">
    <mxGraphModel dx="4616" dy="2588" grid="1" gridSize="10" guides="1" tooltips="1" connect="1" arrows="1" fold="1" page="0" pageScale="1" pageWidth="1654" pageHeight="1169" background="none" math="0" shadow="0">
      <root>
        <mxCell id="0" />
        <mxCell id="1" parent="0" />
        <mxCell id="node37" value="&lt;p style=&quot;margin:0px;margin-top:4px;text-align:center;&quot;&gt;&lt;i&gt;&amp;lt;&amp;lt;interface&amp;gt;&amp;gt;&lt;/i&gt;&lt;br/&gt;&lt;b&gt;AddInformation&lt;DataClass, CollectionClass&gt;&lt;/b&gt;&lt;/p&gt;&lt;hr size=&quot;1&quot;/&gt;" style="verticalAlign=top;align=left;overflow=fill;fontSize=14;fontFamily=Helvetica;html=1;rounded=0;shadow=0;comic=0;labelBackgroundColor=none;strokeWidth=1;" parent="1" vertex="1">
          <mxGeometry x="1401" y="2098" width="374" height="39" as="geometry" />
        </mxCell>
        <mxCell id="node5" value="&lt;p style=&quot;margin:0px;margin-top:4px;text-align:center;&quot;&gt;&lt;b&gt;Const&lt;/b&gt;&lt;/p&gt;&lt;hr size=&quot;1&quot;/&gt;&lt;p style=&quot;margin:0 0 0 4px;line-height:1.6;&quot;&gt;+ USERS_AND_ONLINE_USER_PASSWORD: String&lt;br/&gt;+ CODE: String&lt;br/&gt;+ NO_SUCH_USER: String&lt;br/&gt;+ LINK_ACCOUNT_MESSAGE: String&lt;br/&gt;+ SUCH_USER_ALREADY_EXISTS: String&lt;br/&gt;+ LOGIN_WAS_CHANGED_MESSAGE: String&lt;br/&gt;+ RE_LINKED_THEME: String&lt;br/&gt;+ USERS_AND_ONLINE_USER_SALT: String&lt;br/&gt;+ RE_LINKED_TO_NEW_MAIL_MESSAGE_FIRST_PART: String&lt;br/&gt;+ RE_LINKED_TO_OLD_MAIL_MESSAGE: String&lt;br/&gt;+ RE_LINKED_TO_NEW_MAIL_MESSAGE_SECOND_PART: String&lt;br/&gt;+ NO_CONNECTION_OR_INCORRECT_MAIL: String&lt;br/&gt;+ USER_TABLE: String&lt;br/&gt;+ USERS_AND_ONLINE_USER_MAIL: String&lt;br/&gt;+ USERS_AND_ONLINE_USER_ID: String&lt;br/&gt;+ LINK_ACCOUNT_THEME: String&lt;br/&gt;+ ONLINE_USER_TABLE: String&lt;br/&gt;+ USERS_AND_ONLINE_USER_LOGIN: String&lt;br/&gt;+ recover: String&lt;br/&gt;+ INCORRECT: String&lt;br/&gt;+ VERIFICATION_CODE: String&lt;br/&gt;+ PASSWORD_WAS_CHANGED_MESSAGE: String&lt;br/&gt;+ PARAMETER_WAS_CHANGED_THEME: String&lt;/p&gt;" style="verticalAlign=top;align=left;overflow=fill;fontSize=14;fontFamily=Helvetica;html=1;rounded=0;shadow=0;comic=0;labelBackgroundColor=none;strokeWidth=1;" parent="1" vertex="1">
          <mxGeometry x="410" y="2540" width="397" height="586" as="geometry" />
        </mxCell>
        <mxCell id="node45" value="&lt;p style=&quot;margin:0px;margin-top:4px;text-align:center;&quot;&gt;&lt;i&gt;&amp;lt;&amp;lt;enumeration&amp;gt;&amp;gt;&lt;/i&gt;&lt;br&gt;&lt;b&gt;DatabaseConfigs&lt;/b&gt;&lt;/p&gt;&lt;hr size=&quot;1&quot;&gt;&lt;p style=&quot;margin:0 0 0 4px;line-height:1.6;&quot;&gt;+ PASSWORD: &lt;br&gt;+ USER: &lt;br&gt;+ NAME:&amp;nbsp;&lt;/p&gt;&lt;p style=&quot;margin:0 0 0 4px;line-height:1.6;&quot;&gt;+ EMAIL:&lt;/p&gt;&lt;p style=&quot;margin:0 0 0 4px;line-height:1.6;&quot;&gt;- title: String&lt;/p&gt;" style="verticalAlign=top;align=left;overflow=fill;fontSize=14;fontFamily=Helvetica;html=1;rounded=0;shadow=0;comic=0;labelBackgroundColor=none;strokeWidth=1;" parent="1" vertex="1">
          <mxGeometry x="1501" y="384" width="174" height="178" as="geometry" />
        </mxCell>
        <mxCell id="node27" value="&lt;p style=&quot;margin:0px;margin-top:4px;text-align:center;&quot;&gt;&lt;b&gt;DatabaseHandler&lt;/b&gt;&lt;/p&gt;&lt;hr size=&quot;1&quot;/&gt;&lt;p style=&quot;margin:0 0 0 4px;line-height:1.6;&quot;&gt;- comandString: String&lt;br/&gt;- connection: Connection&lt;br/&gt;- resSet: ResultSet&lt;br/&gt;- prSt: PreparedStatement&lt;/p&gt;" style="verticalAlign=top;align=left;overflow=fill;fontSize=14;fontFamily=Helvetica;html=1;rounded=0;shadow=0;comic=0;labelBackgroundColor=none;strokeWidth=1;" parent="1" vertex="1">
          <mxGeometry x="2752" y="8" width="192" height="140" as="geometry" />
        </mxCell>
        <mxCell id="node34" value="&lt;p style=&quot;margin:0px;margin-top:4px;text-align:center;&quot;&gt;&lt;b&gt;EmailMessage&lt;/b&gt;&lt;/p&gt;&lt;hr size=&quot;1&quot;/&gt;" style="verticalAlign=top;align=left;overflow=fill;fontSize=14;fontFamily=Helvetica;html=1;rounded=0;shadow=0;comic=0;labelBackgroundColor=none;strokeWidth=1;" parent="1" vertex="1">
          <mxGeometry x="1772" y="1318" width="153" height="33" as="geometry" />
        </mxCell>
        <mxCell id="node15" value="&lt;p style=&quot;margin:0px;margin-top:4px;text-align:center;&quot;&gt;&lt;b&gt;PilotsTable&lt;/b&gt;&lt;/p&gt;&lt;hr size=&quot;1&quot;&gt;&lt;p style=&quot;margin:0 0 0 4px;line-height:1.6;&quot;&gt;- rank: String&lt;br&gt;- name: String&lt;/p&gt;" style="verticalAlign=top;align=left;overflow=fill;fontSize=14;fontFamily=Helvetica;html=1;rounded=0;shadow=0;comic=0;labelBackgroundColor=none;strokeWidth=1;" parent="1" vertex="1">
          <mxGeometry x="83" y="2560" width="171" height="104" as="geometry" />
        </mxCell>
        <mxCell id="node1" value="&lt;p style=&quot;margin:0px;margin-top:4px;text-align:center;&quot;&gt;&lt;b&gt;PilotsTableController&lt;/b&gt;&lt;/p&gt;&lt;hr size=&quot;1&quot;&gt;&lt;p style=&quot;margin:0 0 0 4px;line-height:1.6;&quot;&gt;- nameField: TextField&lt;br&gt;- rowDataGoodTable: GoodTable&lt;br&gt;- backButton: Button&lt;/p&gt;" style="verticalAlign=top;align=left;overflow=fill;fontSize=14;fontFamily=Helvetica;html=1;rounded=0;shadow=0;comic=0;labelBackgroundColor=none;strokeWidth=1;" parent="1" vertex="1">
          <mxGeometry x="-21.5" y="2850" width="380" height="144" as="geometry" />
        </mxCell>
        <mxCell id="node46" value="&lt;p style=&quot;margin:0px;margin-top:4px;text-align:center;&quot;&gt;&lt;b&gt;PlanesTable&lt;/b&gt;&lt;/p&gt;&lt;hr size=&quot;1&quot;&gt;&lt;p style=&quot;margin:0 0 0 4px;line-height:1.6;&quot;&gt;- name: String&lt;br&gt;- amount: int&lt;/p&gt;" style="verticalAlign=top;align=left;overflow=fill;fontSize=14;fontFamily=Helvetica;html=1;rounded=0;shadow=0;comic=0;labelBackgroundColor=none;strokeWidth=1;" parent="1" vertex="1">
          <mxGeometry x="995" y="2560" width="187" height="94" as="geometry" />
        </mxCell>
        <mxCell id="node11" value="&lt;p style=&quot;margin:0px;margin-top:4px;text-align:center;&quot;&gt;&lt;i&gt;&amp;lt;&amp;lt;enumeration&amp;gt;&amp;gt;&lt;/i&gt;&lt;br/&gt;&lt;b&gt;Lawyers&lt;/b&gt;&lt;/p&gt;&lt;hr size=&quot;1&quot;/&gt;&lt;p style=&quot;margin:0 0 0 4px;line-height:1.6;&quot;&gt;+ YEARSOFCOOPERATION: &lt;br/&gt;- title: String&lt;br/&gt;+ FIO: &lt;br/&gt;+ IDLAWYERS: &lt;br/&gt;+ PHONE: &lt;br/&gt;+ IDLAWFIRMS: &lt;/p&gt;" style="verticalAlign=top;align=left;overflow=fill;fontSize=14;fontFamily=Helvetica;html=1;rounded=0;shadow=0;comic=0;labelBackgroundColor=none;strokeWidth=1;" parent="1" vertex="1">
          <mxGeometry x="851" y="1564" width="194" height="178" as="geometry" />
        </mxCell>
        <mxCell id="node16" value="&lt;p style=&quot;margin:0px;margin-top:4px;text-align:center;&quot;&gt;&lt;b&gt;PlanesTableController&lt;/b&gt;&lt;/p&gt;&lt;hr size=&quot;1&quot;&gt;&lt;p style=&quot;margin:0 0 0 4px;line-height:1.6;&quot;&gt;- nameField: TextField&lt;br style=&quot;border-color: var(--border-color);&quot;&gt;- rowDataGoodTable: GoodTable&lt;br style=&quot;border-color: var(--border-color);&quot;&gt;- backButton: Button&lt;br&gt;&lt;/p&gt;&lt;p style=&quot;margin:0 0 0 4px;line-height:1.6;&quot;&gt;- amount: Int&lt;br&gt;&lt;/p&gt;" style="verticalAlign=top;align=left;overflow=fill;fontSize=14;fontFamily=Helvetica;html=1;rounded=0;shadow=0;comic=0;labelBackgroundColor=none;strokeWidth=1;" parent="1" vertex="1">
          <mxGeometry x="923.5" y="2770" width="330" height="226" as="geometry" />
        </mxCell>
        <mxCell id="node13" value="&lt;p style=&quot;margin:0px;margin-top:4px;text-align:center;&quot;&gt;&lt;b&gt;Main&lt;/b&gt;&lt;/p&gt;&lt;hr size=&quot;1&quot;/&gt;" style="verticalAlign=top;align=left;overflow=fill;fontSize=14;fontFamily=Helvetica;html=1;rounded=0;shadow=0;comic=0;labelBackgroundColor=none;strokeWidth=1;" parent="1" vertex="1">
          <mxGeometry x="3185" y="58" width="86" height="33" as="geometry" />
        </mxCell>
        <mxCell id="node3" value="&lt;p style=&quot;margin:0px;margin-top:4px;text-align:center;&quot;&gt;&lt;b&gt;MainMenuController&lt;/b&gt;&lt;/p&gt;&lt;hr size=&quot;1&quot;/&gt;&lt;p style=&quot;margin:0 0 0 4px;line-height:1.6;&quot;&gt;- settingButton: Button&lt;br/&gt;- backButton: Button&lt;br/&gt;- tablesMenuButton: Button&lt;/p&gt;" style="verticalAlign=top;align=left;overflow=fill;fontSize=14;fontFamily=Helvetica;html=1;rounded=0;shadow=0;comic=0;labelBackgroundColor=none;strokeWidth=1;" parent="1" vertex="1">
          <mxGeometry x="2347" y="1920" width="203" height="114" as="geometry" />
        </mxCell>
        <mxCell id="node22" value="&lt;p style=&quot;margin:0px;margin-top:4px;text-align:center;&quot;&gt;&lt;i&gt;&amp;lt;&amp;lt;enumeration&amp;gt;&amp;gt;&lt;/i&gt;&lt;br/&gt;&lt;b&gt;MessageConfig&lt;/b&gt;&lt;/p&gt;&lt;hr size=&quot;1&quot;/&gt;&lt;p style=&quot;margin:0 0 0 4px;line-height:1.6;&quot;&gt;+ APPROVING: &lt;br/&gt;+ NO_MESSAGE: &lt;br/&gt;+ NOT_APPROVED: &lt;br/&gt;- title: String&lt;/p&gt;" style="verticalAlign=top;align=left;overflow=fill;fontSize=14;fontFamily=Helvetica;html=1;rounded=0;shadow=0;comic=0;labelBackgroundColor=none;strokeWidth=1;" parent="1" vertex="1">
          <mxGeometry x="946" y="1848" width="164" height="163" as="geometry" />
        </mxCell>
        <mxCell id="node18" value="&lt;p style=&quot;margin:0px;margin-top:4px;text-align:center;&quot;&gt;&lt;i&gt;&amp;lt;&amp;lt;enumeration&amp;gt;&amp;gt;&lt;/i&gt;&lt;br&gt;&lt;b&gt;Scenes&lt;/b&gt;&lt;/p&gt;&lt;hr size=&quot;1&quot;&gt;&lt;p style=&quot;margin:0 0 0 4px;line-height:1.6;&quot;&gt;+ NEW_USERNAME: &lt;br&gt;+ NEW_EMAIL: &lt;br&gt;+ NEW_PASSWORD: &lt;br&gt;+ RECOVER_PASSWORD: &lt;br&gt;+ MENU: &lt;br&gt;+ TABLES_MENU: &lt;br&gt;+ PILOTS: &lt;br&gt;+ PLANES: &lt;br&gt;+ WAREHOUSE: &lt;br&gt;+ REGISTRATION: &lt;br&gt;+ VERIFICATION:&amp;nbsp;&lt;br&gt;&lt;/p&gt;" style="verticalAlign=top;align=left;overflow=fill;fontSize=14;fontFamily=Helvetica;html=1;rounded=0;shadow=0;comic=0;labelBackgroundColor=none;strokeWidth=1;" parent="1" vertex="1">
          <mxGeometry x="298" y="1300" width="181" height="320" as="geometry" />
        </mxCell>
        <mxCell id="node24" value="&lt;p style=&quot;margin:0px;margin-top:4px;text-align:center;&quot;&gt;&lt;i&gt;&amp;lt;&amp;lt;enumeration&amp;gt;&amp;gt;&lt;/i&gt;&lt;br/&gt;&lt;b&gt;ServerConfigs&lt;/b&gt;&lt;/p&gt;&lt;hr size=&quot;1&quot;/&gt;&lt;p style=&quot;margin:0 0 0 4px;line-height:1.6;&quot;&gt;+ GOAL: &lt;br/&gt;+ PATH: &lt;br/&gt;- title: String&lt;br/&gt;+ LINK: &lt;/p&gt;" style="verticalAlign=top;align=left;overflow=fill;fontSize=14;fontFamily=Helvetica;html=1;rounded=0;shadow=0;comic=0;labelBackgroundColor=none;strokeWidth=1;" parent="1" vertex="1">
          <mxGeometry x="2132" y="428" width="153" height="163" as="geometry" />
        </mxCell>
        <mxCell id="node20" value="&lt;p style=&quot;margin:0px;margin-top:4px;text-align:center;&quot;&gt;&lt;i&gt;&amp;lt;&amp;lt;enumeration&amp;gt;&amp;gt;&lt;/i&gt;&lt;br&gt;&lt;b&gt;Tables&lt;/b&gt;&lt;/p&gt;&lt;hr size=&quot;1&quot;&gt;&lt;p style=&quot;margin:0 0 0 4px;line-height:1.6;&quot;&gt;+ PLANES: &lt;br&gt;+ PILOTS: &lt;br&gt;+ WAREHOUSE: &lt;br&gt;- title: String&lt;/p&gt;" style="verticalAlign=top;align=left;overflow=fill;fontSize=14;fontFamily=Helvetica;html=1;rounded=0;shadow=0;comic=0;labelBackgroundColor=none;strokeWidth=1;" parent="1" vertex="1">
          <mxGeometry x="786" y="1230" width="125" height="148" as="geometry" />
        </mxCell>
        <mxCell id="node10" value="&lt;p style=&quot;margin:0px;margin-top:4px;text-align:center;&quot;&gt;&lt;b&gt;TablesMenuController&lt;/b&gt;&lt;/p&gt;&lt;hr size=&quot;1&quot;&gt;&lt;p style=&quot;margin:0 0 0 4px;line-height:1.6;&quot;&gt;- planesButton: Button&lt;br&gt;- backButton: Button&lt;br&gt;- pilotsButton: Button&lt;br&gt;- warehouseButton: Button&lt;br&gt;&lt;br&gt;&lt;/p&gt;" style="verticalAlign=top;align=left;overflow=fill;fontSize=14;fontFamily=Helvetica;html=1;rounded=0;shadow=0;comic=0;labelBackgroundColor=none;strokeWidth=1;" parent="1" vertex="1">
          <mxGeometry x="1462" y="1792" width="213" height="138" as="geometry" />
        </mxCell>
        <mxCell id="node35" value="&lt;p style=&quot;margin:0px;margin-top:4px;text-align:center;&quot;&gt;&lt;b&gt;User&lt;/b&gt;&lt;/p&gt;&lt;hr size=&quot;1&quot;&gt;&lt;p style=&quot;margin:0 0 0 4px;line-height:1.6;&quot;&gt;- Password: String&lt;br&gt;- Email: String&lt;br&gt;- Username: String&lt;/p&gt;" style="verticalAlign=top;align=left;overflow=fill;fontSize=14;fontFamily=Helvetica;html=1;rounded=0;shadow=0;comic=0;labelBackgroundColor=none;strokeWidth=1;" parent="1" vertex="1">
          <mxGeometry x="110" y="232" width="156" height="108" as="geometry" />
        </mxCell>
        <mxCell id="node12" value="&lt;p style=&quot;margin:0px;margin-top:4px;text-align:center;&quot;&gt;&lt;b&gt;WarehouseTable&lt;/b&gt;&lt;/p&gt;&lt;hr size=&quot;1&quot;&gt;&lt;p style=&quot;margin:0 0 0 4px;line-height:1.6;&quot;&gt;- name: String&lt;/p&gt;&lt;p style=&quot;margin:0 0 0 4px;line-height:1.6;&quot;&gt;- amount: Int&lt;/p&gt;" style="verticalAlign=top;align=left;overflow=fill;fontSize=14;fontFamily=Helvetica;html=1;rounded=0;shadow=0;comic=0;labelBackgroundColor=none;strokeWidth=1;" parent="1" vertex="1">
          <mxGeometry x="1518" y="2590" width="140" height="110" as="geometry" />
        </mxCell>
        <mxCell id="node30" value="&lt;p style=&quot;margin:0px;margin-top:4px;text-align:center;&quot;&gt;&lt;i&gt;&amp;lt;&amp;lt;enumeration&amp;gt;&amp;gt;&lt;/i&gt;&lt;br/&gt;&lt;b&gt;Workers&lt;/b&gt;&lt;/p&gt;&lt;hr size=&quot;1&quot;/&gt;&lt;p style=&quot;margin:0 0 0 4px;line-height:1.6;&quot;&gt;+ RATING: &lt;br/&gt;+ PHONE: &lt;br/&gt;- title: String&lt;br/&gt;+ IDWORKERS: &lt;br/&gt;+ SALARY: &lt;br/&gt;+ FIO: &lt;br/&gt;+ ADDRESS: &lt;br/&gt;+ WORKERPOSITION: &lt;br/&gt;+ EXPERIENCE: &lt;/p&gt;" style="verticalAlign=top;align=left;overflow=fill;fontSize=14;fontFamily=Helvetica;html=1;rounded=0;shadow=0;comic=0;labelBackgroundColor=none;strokeWidth=1;" parent="1" vertex="1">
          <mxGeometry x="1107" y="1528" width="163" height="250" as="geometry" />
        </mxCell>
        <mxCell id="node48" value="&lt;p style=&quot;margin:0px;margin-top:4px;text-align:center;&quot;&gt;&lt;b&gt;WarehouseTableController&lt;/b&gt;&lt;/p&gt;&lt;hr size=&quot;1&quot;&gt;&lt;hr style=&quot;border-color: var(--border-color);&quot; size=&quot;1&quot;&gt;&lt;p style=&quot;border-color: var(--border-color); margin: 0px 0px 0px 4px; line-height: 1.6;&quot;&gt;- nameField: TextField&lt;br style=&quot;border-color: var(--border-color);&quot;&gt;- rowDataGoodTable: GoodTable&lt;br style=&quot;border-color: var(--border-color);&quot;&gt;- backButton: Button&lt;/p&gt;&lt;p style=&quot;border-color: var(--border-color); margin: 0px 0px 0px 4px; line-height: 1.6;&quot;&gt;- amount: Int&lt;/p&gt;" style="verticalAlign=top;align=left;overflow=fill;fontSize=14;fontFamily=Helvetica;html=1;rounded=0;shadow=0;comic=0;labelBackgroundColor=none;strokeWidth=1;" parent="1" vertex="1">
          <mxGeometry x="1446" y="2930" width="284" height="174" as="geometry" />
        </mxCell>
        <mxCell id="node21" value="&lt;p style=&quot;margin:0px;margin-top:4px;text-align:center;&quot;&gt;&lt;b&gt;checkForCorrectSymbols&lt;/b&gt;&lt;/p&gt;&lt;hr size=&quot;1&quot;/&gt;" style="verticalAlign=top;align=left;overflow=fill;fontSize=14;fontFamily=Helvetica;html=1;rounded=0;shadow=0;comic=0;labelBackgroundColor=none;strokeWidth=1;" parent="1" vertex="1">
          <mxGeometry x="1454" y="1498" width="229" height="33" as="geometry" />
        </mxCell>
        <mxCell id="node7" value="&lt;p style=&quot;margin:0px;margin-top:4px;text-align:center;&quot;&gt;&lt;b&gt;entranceControl&lt;/b&gt;&lt;/p&gt;&lt;hr size=&quot;1&quot;/&gt;&lt;p style=&quot;margin:0 0 0 4px;line-height:1.6;&quot;&gt;- recoverLoginButton: Button&lt;br/&gt;- entranceButton: Button&lt;br/&gt;- incorrectParametersLabel: Label&lt;br/&gt;- backButton: Button&lt;br/&gt;- loginField: TextField&lt;br/&gt;- passField: PasswordField&lt;br/&gt;~ dbHandler: DatabaseHandler&lt;br/&gt;- recoverPasswordButton: Button&lt;/p&gt;" style="verticalAlign=top;align=left;overflow=fill;fontSize=14;fontFamily=Helvetica;html=1;rounded=0;shadow=0;comic=0;labelBackgroundColor=none;strokeWidth=1;" parent="1" vertex="1">
          <mxGeometry x="71" y="2100" width="234" height="226" as="geometry" />
        </mxCell>
        <mxCell id="node47" value="&lt;p style=&quot;margin:0px;margin-top:4px;text-align:center;&quot;&gt;&lt;b&gt;hashClass&lt;/b&gt;&lt;/p&gt;&lt;hr size=&quot;1&quot;/&gt;" style="verticalAlign=top;align=left;overflow=fill;fontSize=14;fontFamily=Helvetica;html=1;rounded=0;shadow=0;comic=0;labelBackgroundColor=none;strokeWidth=1;" parent="1" vertex="1">
          <mxGeometry x="1848" y="2098" width="121" height="33" as="geometry" />
        </mxCell>
        <mxCell id="node36" value="&lt;p style=&quot;margin:0px;margin-top:4px;text-align:center;&quot;&gt;&lt;b&gt;menuLoginOrRegisterControl&lt;/b&gt;&lt;/p&gt;&lt;hr size=&quot;1&quot;&gt;&lt;p style=&quot;margin:0 0 0 4px;line-height:1.6;&quot;&gt;- registrationButton: Button&lt;br&gt;- entranceButton: Button&lt;/p&gt;" style="verticalAlign=top;align=left;overflow=fill;fontSize=14;fontFamily=Helvetica;html=1;rounded=0;shadow=0;comic=0;labelBackgroundColor=none;strokeWidth=1;" parent="1" vertex="1">
          <mxGeometry x="2690" y="2532" width="316" height="89" as="geometry" />
        </mxCell>
        <mxCell id="node26" value="&lt;p style=&quot;margin:0px;margin-top:4px;text-align:center;&quot;&gt;&lt;b&gt;methodsWithConnectionToInternet&lt;/b&gt;&lt;/p&gt;&lt;hr size=&quot;1&quot;/&gt;" style="verticalAlign=top;align=left;overflow=fill;fontSize=14;fontFamily=Helvetica;html=1;rounded=0;shadow=0;comic=0;labelBackgroundColor=none;strokeWidth=1;" parent="1" vertex="1">
          <mxGeometry x="1573" y="1398" width="310" height="33" as="geometry" />
        </mxCell>
        <mxCell id="node14" value="&lt;p style=&quot;margin:0px;margin-top:4px;text-align:center;&quot;&gt;&lt;b&gt;newLoginControl&lt;/b&gt;&lt;/p&gt;&lt;hr size=&quot;1&quot;/&gt;&lt;p style=&quot;margin:0 0 0 4px;line-height:1.6;&quot;&gt;- dbHandler: DatabaseHandler&lt;br/&gt;- sameLoginField: Label&lt;br/&gt;~ onlineUser: ResultSet&lt;br/&gt;~ connection: methodsWithConnectionToInternet&lt;br/&gt;- exceptButton: Button&lt;br/&gt;- backButton: Button&lt;br/&gt;- newLoginField: TextField&lt;/p&gt;" style="verticalAlign=top;align=left;overflow=fill;fontSize=14;fontFamily=Helvetica;html=1;rounded=0;shadow=0;comic=0;labelBackgroundColor=none;strokeWidth=1;" parent="1" vertex="1">
          <mxGeometry x="1925" y="992" width="327" height="202" as="geometry" />
        </mxCell>
        <mxCell id="node2" value="&lt;p style=&quot;margin:0px;margin-top:4px;text-align:center;&quot;&gt;&lt;b&gt;newMailControl&lt;/b&gt;&lt;/p&gt;&lt;hr size=&quot;1&quot;/&gt;&lt;p style=&quot;margin:0 0 0 4px;line-height:1.6;&quot;&gt;~ oldMail: String&lt;br/&gt;- errorLabel: Label&lt;br/&gt;- exceptButton: Button&lt;br/&gt;~ connection: methodsWithConnectionToInternet&lt;br/&gt;~ dbHandler: DatabaseHandler&lt;br/&gt;~ onlineUser: ResultSet&lt;br/&gt;- newMailField: TextField&lt;br/&gt;- backButton: Button&lt;/p&gt;" style="verticalAlign=top;align=left;overflow=fill;fontSize=14;fontFamily=Helvetica;html=1;rounded=0;shadow=0;comic=0;labelBackgroundColor=none;strokeWidth=1;" parent="1" vertex="1">
          <mxGeometry x="525" y="1940" width="327" height="226" as="geometry" />
        </mxCell>
        <mxCell id="node29" value="&lt;p style=&quot;margin:0px;margin-top:4px;text-align:center;&quot;&gt;&lt;b&gt;newPasswordControl&lt;/b&gt;&lt;/p&gt;&lt;hr size=&quot;1&quot;/&gt;&lt;p style=&quot;margin:0 0 0 4px;line-height:1.6;&quot;&gt;- newPasswordField: TextField&lt;br/&gt;~ onlineUser: ResultSet&lt;br/&gt;~ connection: methodsWithConnectionToInternet&lt;br/&gt;- exceptButton: Button&lt;br/&gt;~ dbHandler: DatabaseHandler&lt;br/&gt;- backButton: Button&lt;/p&gt;" style="verticalAlign=top;align=left;overflow=fill;fontSize=14;fontFamily=Helvetica;html=1;rounded=0;shadow=0;comic=0;labelBackgroundColor=none;strokeWidth=1;" parent="1" vertex="1">
          <mxGeometry x="1185" y="864" width="327" height="178" as="geometry" />
        </mxCell>
        <mxCell id="node6" value="&lt;p style=&quot;margin:0px;margin-top:4px;text-align:center;&quot;&gt;&lt;b&gt;ForgotPasswordController&lt;/b&gt;&lt;br&gt;&lt;/p&gt;&lt;hr size=&quot;1&quot;&gt;&lt;p style=&quot;margin:0 0 0 4px;line-height:1.6;&quot;&gt;- headerView: CustomHeaderView&lt;br&gt;- emailField: CustomTextField&lt;br&gt;- resetPasswordButton: CustomButton&lt;br&gt;&lt;/p&gt;" style="verticalAlign=top;align=left;overflow=fill;fontSize=14;fontFamily=Helvetica;html=1;rounded=0;shadow=0;comic=0;labelBackgroundColor=none;strokeWidth=1;" parent="1" vertex="1">
          <mxGeometry x="59" y="14.5" width="246" height="120" as="geometry" />
        </mxCell>
        <mxCell id="node41" value="&lt;p style=&quot;margin:0px;margin-top:4px;text-align:center;&quot;&gt;&lt;b&gt;recoverPasswordControl&lt;/b&gt;&lt;/p&gt;&lt;hr size=&quot;1&quot;/&gt;&lt;p style=&quot;margin:0 0 0 4px;line-height:1.6;&quot;&gt;- errorLabel: Label&lt;br/&gt;- sentCodeButton: Button&lt;br/&gt;- backButton: Button&lt;br/&gt;- dbHandler: DatabaseHandler&lt;br/&gt;- mailField: TextField&lt;br/&gt;- loginField: TextField&lt;/p&gt;" style="verticalAlign=top;align=left;overflow=fill;fontSize=14;fontFamily=Helvetica;html=1;rounded=0;shadow=0;comic=0;labelBackgroundColor=none;strokeWidth=1;" parent="1" vertex="1">
          <mxGeometry x="-186" y="2284" width="229" height="178" as="geometry" />
        </mxCell>
        <mxCell id="node8" value="&lt;p style=&quot;margin:0px;margin-top:4px;text-align:center;&quot;&gt;&lt;b&gt;registrationControl&lt;/b&gt;&lt;/p&gt;&lt;hr size=&quot;1&quot;&gt;&lt;p style=&quot;margin:0 0 0 4px;line-height:1.6;&quot;&gt;- errorLabel: Label&lt;br&gt;- backButton: Button&lt;br&gt;- loginField: TextField&lt;br&gt;- connectionToInternet: methodsWithConnectionToInternet&lt;br&gt;- registrationButton: Button&lt;br&gt;- passField: PasswordField&lt;br&gt;- repeatPasswordField: PasswordField&lt;br&gt;- emailField: TextField&lt;br&gt;- dbHandle: DatabaseHandler&lt;/p&gt;" style="verticalAlign=top;align=left;overflow=fill;fontSize=14;fontFamily=Helvetica;html=1;rounded=0;shadow=0;comic=0;labelBackgroundColor=none;strokeWidth=1;" parent="1" vertex="1">
          <mxGeometry x="754" y="636" width="389" height="274" as="geometry" />
        </mxCell>
        <mxCell id="node33" value="&lt;p style=&quot;margin:0px;margin-top:4px;text-align:center;&quot;&gt;&lt;b&gt;sentCodeForRecoverControl&lt;/b&gt;&lt;/p&gt;&lt;hr size=&quot;1&quot;/&gt;&lt;p style=&quot;margin:0 0 0 4px;line-height:1.6;&quot;&gt;- dbHandler: DatabaseHandler&lt;br/&gt;- codeField: TextField&lt;br/&gt;- connection: methodsWithConnectionToInternet&lt;br/&gt;- verificationCode: String&lt;br/&gt;+ backButton: Button&lt;/p&gt;" style="verticalAlign=top;align=left;overflow=fill;fontSize=14;fontFamily=Helvetica;html=1;rounded=0;shadow=0;comic=0;labelBackgroundColor=none;strokeWidth=1;" parent="1" vertex="1">
          <mxGeometry x="1945" y="1516" width="327" height="154" as="geometry" />
        </mxCell>
        <mxCell id="node0" value="&lt;p style=&quot;margin:0px;margin-top:4px;text-align:center;&quot;&gt;&lt;b&gt;verificationForChangeLoginControl&lt;/b&gt;&lt;/p&gt;&lt;hr size=&quot;1&quot;/&gt;&lt;p style=&quot;margin:0 0 0 4px;line-height:1.6;&quot;&gt;- dbHandler: DatabaseHandler&lt;br/&gt;- errorLabel: Label&lt;br/&gt;- codeField: TextField&lt;br/&gt;- passwordField: TextField&lt;br/&gt;~ password: String&lt;br/&gt;~ salt: String&lt;br/&gt;~ connection: methodsWithConnectionToInternet&lt;br/&gt;~ code: String&lt;br/&gt;- verificationButton: Button&lt;br/&gt;- backButton: Button&lt;/p&gt;" style="verticalAlign=top;align=left;overflow=fill;fontSize=14;fontFamily=Helvetica;html=1;rounded=0;shadow=0;comic=0;labelBackgroundColor=none;strokeWidth=1;" parent="1" vertex="1">
          <mxGeometry x="1945" y="1736" width="327" height="274" as="geometry" />
        </mxCell>
        <mxCell id="node43" value="&lt;p style=&quot;margin:0px;margin-top:4px;text-align:center;&quot;&gt;&lt;b&gt;verificationForChangePasswordControl&lt;/b&gt;&lt;/p&gt;&lt;hr size=&quot;1&quot;/&gt;&lt;p style=&quot;margin:0 0 0 4px;line-height:1.6;&quot;&gt;- connection: methodsWithConnectionToInternet&lt;br/&gt;- backButton: Button&lt;br/&gt;- verificationButton: Button&lt;br/&gt;~ login: String&lt;br/&gt;- codeField: TextField&lt;br/&gt;~ code: String&lt;br/&gt;- errorLabel: Label&lt;br/&gt;- loginField: TextField&lt;br/&gt;- dbHandler: DatabaseHandler&lt;/p&gt;" style="verticalAlign=top;align=left;overflow=fill;fontSize=14;fontFamily=Helvetica;html=1;rounded=0;shadow=0;comic=0;labelBackgroundColor=none;strokeWidth=1;" parent="1" vertex="1">
          <mxGeometry x="2342" y="1288" width="333" height="250" as="geometry" />
        </mxCell>
        <mxCell id="node38" value="&lt;p style=&quot;margin:0px;margin-top:4px;text-align:center;&quot;&gt;&lt;b&gt;RegisterUserRequest&lt;/b&gt;&lt;br&gt;&lt;/p&gt;&lt;hr size=&quot;1&quot;&gt;&lt;p style=&quot;margin:0 0 0 4px;line-height:1.6;&quot;&gt;~ user: User&lt;br&gt;+ backButton: Button&lt;br&gt;- dbHandler: DatabaseHandler&lt;br&gt;~ onlineUser: ResultSet&lt;br&gt;~ connection: methodsWithConnectionToInternet&lt;br&gt;- registrationButton: Button&lt;/p&gt;" style="verticalAlign=top;align=left;overflow=fill;fontSize=14;fontFamily=Helvetica;html=1;rounded=0;shadow=0;comic=0;labelBackgroundColor=none;strokeWidth=1;" parent="1" vertex="1">
          <mxGeometry x="345" y="480" width="327" height="226" as="geometry" />
        </mxCell>
        <mxCell id="edge16" value="" style="html=1;rounded=1;edgeStyle=orthogonalEdgeStyle;dashed=1;startArrow=none;endArrow=openThin;endSize=12;strokeColor=#595959;exitX=0.917;exitY=0.000;exitDx=0;exitDy=0;entryX=0.511;entryY=1.000;entryDx=0;entryDy=0;" parent="1" source="node1" target="node27" edge="1">
          <mxGeometry width="50" height="50" relative="1" as="geometry">
            <Array as="points">
              <mxPoint x="327" y="2190" />
              <mxPoint x="2850" y="2190" />
            </Array>
          </mxGeometry>
        </mxCell>
        <mxCell id="label98" value="«create»" style="edgeLabel;resizable=0;html=1;align=left;verticalAlign=top;strokeColor=default;" parent="edge16" vertex="1" connectable="0">
          <mxGeometry x="2800" y="1161" as="geometry" />
        </mxCell>
        <mxCell id="edge18" value="" style="html=1;rounded=1;edgeStyle=orthogonalEdgeStyle;dashed=0;startArrow=diamondThinstartSize=12;endArrow=openThin;endSize=12;strokeColor=#595959;exitX=0.943;exitY=0.000;exitDx=0;exitDy=0;entryX=0.543;entryY=1.000;entryDx=0;entryDy=0;" parent="1" source="node1" target="node27" edge="1">
          <mxGeometry width="50" height="50" relative="1" as="geometry">
            <Array as="points">
              <mxPoint x="337" y="2200" />
              <mxPoint x="2856" y="2200" />
            </Array>
          </mxGeometry>
        </mxCell>
        <mxCell id="label108" value="1" style="edgeLabel;resizable=0;html=1;align=left;verticalAlign=top;strokeColor=default;" parent="edge18" vertex="1" connectable="0">
          <mxGeometry x="961" y="2180" as="geometry" />
        </mxCell>
        <mxCell id="label112" value="1" style="edgeLabel;resizable=0;html=1;align=left;verticalAlign=top;strokeColor=default;" parent="edge18" vertex="1" connectable="0">
          <mxGeometry x="2805" y="143" as="geometry" />
        </mxCell>
        <mxCell id="label113" value="databaseHandler" style="edgeLabel;resizable=0;html=1;align=left;verticalAlign=top;strokeColor=default;" parent="edge18" vertex="1" connectable="0">
          <mxGeometry x="2880" y="343" as="geometry" />
        </mxCell>
        <mxCell id="edge48" value="" style="html=1;rounded=1;edgeStyle=orthogonalEdgeStyle;dashed=1;startArrow=none;endArrow=openThin;endSize=12;strokeColor=#595959;exitX=0.000;exitY=0.500;exitDx=0;exitDy=0;entryX=0.000;entryY=0.500;entryDx=0;entryDy=0;" parent="1" source="node1" target="node15" edge="1">
          <mxGeometry width="50" height="50" relative="1" as="geometry">
            <Array as="points">
              <mxPoint x="-188" y="2933" />
              <mxPoint x="-188" y="2613" />
            </Array>
          </mxGeometry>
        </mxCell>
        <mxCell id="label290" value="«create»" style="edgeLabel;resizable=0;html=1;align=left;verticalAlign=top;strokeColor=default;" parent="edge48" vertex="1" connectable="0">
          <mxGeometry x="-239" y="2923" as="geometry" />
        </mxCell>
        <mxCell id="edge64" value="" style="html=1;rounded=1;edgeStyle=orthogonalEdgeStyle;dashed=0;startArrow=diamondThinstartSize=12;endArrow=openThin;endSize=12;strokeColor=#595959;exitX=0.500;exitY=0.000;exitDx=0;exitDy=0;entryX=0.500;entryY=1.000;entryDx=0;entryDy=0;" parent="1" source="node1" target="node15" edge="1">
          <mxGeometry width="50" height="50" relative="1" as="geometry">
            <Array as="points" />
          </mxGeometry>
        </mxCell>
        <mxCell id="label384" value="1" style="edgeLabel;resizable=0;html=1;align=left;verticalAlign=top;strokeColor=default;" parent="edge64" vertex="1" connectable="0">
          <mxGeometry x="157" y="2706" as="geometry" />
        </mxCell>
        <mxCell id="label388" value="*" style="edgeLabel;resizable=0;html=1;align=left;verticalAlign=top;strokeColor=default;" parent="edge64" vertex="1" connectable="0">
          <mxGeometry x="159" y="2695" as="geometry" />
        </mxCell>
        <mxCell id="label389" value="data" style="edgeLabel;resizable=0;html=1;align=left;verticalAlign=top;strokeColor=default;" parent="edge64" vertex="1" connectable="0">
          <mxGeometry x="168" y="2695" as="geometry" />
        </mxCell>
        <mxCell id="edge40" value="" style="html=1;rounded=1;edgeStyle=orthogonalEdgeStyle;dashed=0;startArrow=diamondThinstartSize=12;endArrow=openThin;endSize=12;strokeColor=#595959;exitX=1.000;exitY=0.100;exitDx=0;exitDy=0;entryX=0.000;entryY=0.308;entryDx=0;entryDy=0;" parent="1" source="node16" target="node27" edge="1">
          <mxGeometry width="50" height="50" relative="1" as="geometry">
            <Array as="points">
              <mxPoint x="2294" y="2786" />
              <mxPoint x="2294" y="48" />
            </Array>
          </mxGeometry>
        </mxCell>
        <mxCell id="label240" value="1" style="edgeLabel;resizable=0;html=1;align=left;verticalAlign=top;strokeColor=default;" parent="edge40" vertex="1" connectable="0">
          <mxGeometry x="2298" y="2092" as="geometry" />
        </mxCell>
        <mxCell id="label244" value="1" style="edgeLabel;resizable=0;html=1;align=left;verticalAlign=top;strokeColor=default;" parent="edge40" vertex="1" connectable="0">
          <mxGeometry x="2289" y="-12" as="geometry" />
        </mxCell>
        <mxCell id="label245" value="databaseHandler" style="edgeLabel;resizable=0;html=1;align=left;verticalAlign=top;strokeColor=default;" parent="edge40" vertex="1" connectable="0">
          <mxGeometry x="2608" y="91" as="geometry" />
        </mxCell>
        <mxCell id="edge45" value="" style="html=1;rounded=1;edgeStyle=orthogonalEdgeStyle;dashed=1;startArrow=none;endArrow=openThin;endSize=12;strokeColor=#595959;exitX=1.000;exitY=0.124;exitDx=0;exitDy=0;entryX=0.000;entryY=0.385;entryDx=0;entryDy=0;" parent="1" source="node16" target="node27" edge="1">
          <mxGeometry width="50" height="50" relative="1" as="geometry">
            <Array as="points">
              <mxPoint x="2304" y="2796" />
              <mxPoint x="2304" y="58" />
            </Array>
          </mxGeometry>
        </mxCell>
        <mxCell id="label272" value="«create»" style="edgeLabel;resizable=0;html=1;align=left;verticalAlign=top;strokeColor=default;" parent="edge45" vertex="1" connectable="0">
          <mxGeometry x="2418" y="23" as="geometry" />
        </mxCell>
        <mxCell id="edge20" value="" style="html=1;rounded=1;edgeStyle=orthogonalEdgeStyle;dashed=0;startArrow=diamondThinstartSize=12;endArrow=openThin;endSize=12;strokeColor=#595959;exitX=0.000;exitY=0.500;exitDx=0;exitDy=0;entryX=0.000;entryY=0.500;entryDx=0;entryDy=0;" parent="1" source="node16" target="node46" edge="1">
          <mxGeometry width="50" height="50" relative="1" as="geometry">
            <Array as="points">
              <mxPoint x="848" y="2953" />
              <mxPoint x="848" y="2613" />
            </Array>
          </mxGeometry>
        </mxCell>
        <mxCell id="label120" value="1" style="edgeLabel;resizable=0;html=1;align=left;verticalAlign=top;strokeColor=default;" parent="edge20" vertex="1" connectable="0">
          <mxGeometry x="843" y="2949" as="geometry" />
        </mxCell>
        <mxCell id="label124" value="*" style="edgeLabel;resizable=0;html=1;align=left;verticalAlign=top;strokeColor=default;" parent="edge20" vertex="1" connectable="0">
          <mxGeometry x="981" y="2599" as="geometry" />
        </mxCell>
        <mxCell id="label125" value="data" style="edgeLabel;resizable=0;html=1;align=left;verticalAlign=top;strokeColor=default;" parent="edge20" vertex="1" connectable="0">
          <mxGeometry x="962" y="2617" as="geometry" />
        </mxCell>
        <mxCell id="edge61" value="" style="html=1;rounded=1;edgeStyle=orthogonalEdgeStyle;dashed=1;startArrow=none;endArrow=openThin;endSize=12;strokeColor=#595959;exitX=0.500;exitY=0.000;exitDx=0;exitDy=0;entryX=0.500;entryY=1.000;entryDx=0;entryDy=0;" parent="1" source="node16" target="node46" edge="1">
          <mxGeometry width="50" height="50" relative="1" as="geometry">
            <Array as="points" />
          </mxGeometry>
        </mxCell>
        <mxCell id="label368" value="«create»" style="edgeLabel;resizable=0;html=1;align=left;verticalAlign=top;strokeColor=default;" parent="edge61" vertex="1" connectable="0">
          <mxGeometry x="1038" y="2707" as="geometry" />
        </mxCell>
        <mxCell id="edge15" value="" style="html=1;rounded=1;edgeStyle=orthogonalEdgeStyle;dashed=1;startArrow=none;endArrow=openThin;endSize=12;strokeColor=#595959;exitX=0.000;exitY=0.500;exitDx=0;exitDy=0;entryX=1.000;entryY=0.500;entryDx=0;entryDy=0;" parent="1" source="node13" target="node27" edge="1">
          <mxGeometry width="50" height="50" relative="1" as="geometry">
            <Array as="points" />
          </mxGeometry>
        </mxCell>
        <mxCell id="label92" value="«create»" style="edgeLabel;resizable=0;html=1;align=left;verticalAlign=top;strokeColor=default;" parent="edge15" vertex="1" connectable="0">
          <mxGeometry x="3021" y="53" as="geometry" />
        </mxCell>
        <mxCell id="edge4" value="" style="html=1;rounded=1;edgeStyle=orthogonalEdgeStyle;dashed=0;startArrow=diamondThinstartSize=12;endArrow=openThin;endSize=12;strokeColor=#595959;exitX=1.000;exitY=0.008;exitDx=0;exitDy=0;entryX=0.000;entryY=0.462;entryDx=0;entryDy=0;" parent="1" source="node48" target="node27" edge="1">
          <mxGeometry width="50" height="50" relative="1" as="geometry">
            <Array as="points">
              <mxPoint x="2313" y="2820" />
              <mxPoint x="2313" y="68" />
            </Array>
          </mxGeometry>
        </mxCell>
        <mxCell id="label24" value="1" style="edgeLabel;resizable=0;html=1;align=left;verticalAlign=top;strokeColor=default;" parent="edge4" vertex="1" connectable="0">
          <mxGeometry x="1883" y="2805" as="geometry" />
        </mxCell>
        <mxCell id="label28" value="1" style="edgeLabel;resizable=0;html=1;align=left;verticalAlign=top;strokeColor=default;" parent="edge4" vertex="1" connectable="0">
          <mxGeometry x="2751" y="8" as="geometry" />
        </mxCell>
        <mxCell id="label29" value="databaseHandler" style="edgeLabel;resizable=0;html=1;align=left;verticalAlign=top;strokeColor=default;" parent="edge4" vertex="1" connectable="0">
          <mxGeometry x="2610" y="111" as="geometry" />
        </mxCell>
        <mxCell id="edge5" value="" style="html=1;rounded=1;edgeStyle=orthogonalEdgeStyle;dashed=1;startArrow=none;endArrow=openThin;endSize=12;strokeColor=#595959;exitX=1.000;exitY=0.016;exitDx=0;exitDy=0;entryX=0.000;entryY=0.538;entryDx=0;entryDy=0;" parent="1" source="node48" target="node27" edge="1">
          <mxGeometry width="50" height="50" relative="1" as="geometry">
            <Array as="points">
              <mxPoint x="2323" y="2824" />
              <mxPoint x="2323" y="78" />
            </Array>
          </mxGeometry>
        </mxCell>
        <mxCell id="label32" value="«create»" style="edgeLabel;resizable=0;html=1;align=left;verticalAlign=top;strokeColor=default;" parent="edge5" vertex="1" connectable="0">
          <mxGeometry x="2564" y="43" as="geometry" />
        </mxCell>
        <mxCell id="edge0" value="" style="html=1;rounded=1;edgeStyle=orthogonalEdgeStyle;dashed=0;startArrow=diamondThinstartSize=12;endArrow=openThin;endSize=12;strokeColor=#595959;exitX=0.000;exitY=0.500;exitDx=0;exitDy=0;entryX=0.000;entryY=0.500;entryDx=0;entryDy=0;" parent="1" source="node48" target="node12" edge="1">
          <mxGeometry width="50" height="50" relative="1" as="geometry">
            <Array as="points">
              <mxPoint x="1384" y="3073" />
              <mxPoint x="1384" y="2653" />
            </Array>
          </mxGeometry>
        </mxCell>
        <mxCell id="label0" value="1" style="edgeLabel;resizable=0;html=1;align=left;verticalAlign=top;strokeColor=default;" parent="edge0" vertex="1" connectable="0">
          <mxGeometry x="1380" y="3069" as="geometry" />
        </mxCell>
        <mxCell id="label4" value="*" style="edgeLabel;resizable=0;html=1;align=left;verticalAlign=top;strokeColor=default;" parent="edge0" vertex="1" connectable="0">
          <mxGeometry x="1486" y="2639" as="geometry" />
        </mxCell>
        <mxCell id="label5" value="data" style="edgeLabel;resizable=0;html=1;align=left;verticalAlign=top;strokeColor=default;" parent="edge0" vertex="1" connectable="0">
          <mxGeometry x="1467" y="2657" as="geometry" />
        </mxCell>
        <mxCell id="edge39" value="" style="html=1;rounded=1;edgeStyle=orthogonalEdgeStyle;dashed=1;startArrow=none;endArrow=openThin;endSize=12;strokeColor=#595959;exitX=0.500;exitY=0.000;exitDx=0;exitDy=0;entryX=0.500;entryY=1.000;entryDx=0;entryDy=0;" parent="1" source="node48" target="node12" edge="1">
          <mxGeometry width="50" height="50" relative="1" as="geometry">
            <Array as="points" />
          </mxGeometry>
        </mxCell>
        <mxCell id="label236" value="«create»" style="edgeLabel;resizable=0;html=1;align=left;verticalAlign=top;strokeColor=default;" parent="edge39" vertex="1" connectable="0">
          <mxGeometry x="1538" y="2781" as="geometry" />
        </mxCell>
        <mxCell id="edge33" value="" style="html=1;rounded=1;edgeStyle=orthogonalEdgeStyle;dashed=1;startArrow=none;endArrow=openThin;endSize=12;strokeColor=#595959;exitX=1.000;exitY=0.500;exitDx=0;exitDy=0;entryX=0.575;entryY=1.000;entryDx=0;entryDy=0;" parent="1" source="node7" target="node27" edge="1">
          <mxGeometry width="50" height="50" relative="1" as="geometry">
            <Array as="points">
              <mxPoint x="2862" y="2213" />
            </Array>
          </mxGeometry>
        </mxCell>
        <mxCell id="label200" value="«create»" style="edgeLabel;resizable=0;html=1;align=left;verticalAlign=top;strokeColor=default;" parent="edge33" vertex="1" connectable="0">
          <mxGeometry x="2812" y="1173" as="geometry" />
        </mxCell>
        <mxCell id="edge65" value="" style="html=1;rounded=1;edgeStyle=orthogonalEdgeStyle;dashed=0;startArrow=diamondThinstartSize=12;endArrow=openThin;endSize=12;strokeColor=#595959;exitX=0.500;exitY=1.000;exitDx=0;exitDy=0;entryX=0.607;entryY=1.000;entryDx=0;entryDy=0;" parent="1" source="node7" target="node27" edge="1">
          <mxGeometry width="50" height="50" relative="1" as="geometry">
            <Array as="points">
              <mxPoint x="188" y="2328" />
              <mxPoint x="2868" y="2328" />
            </Array>
          </mxGeometry>
        </mxCell>
        <mxCell id="label390" value="1" style="edgeLabel;resizable=0;html=1;align=left;verticalAlign=top;strokeColor=default;" parent="edge65" vertex="1" connectable="0">
          <mxGeometry x="188" y="2317" as="geometry" />
        </mxCell>
        <mxCell id="label394" value="1" style="edgeLabel;resizable=0;html=1;align=left;verticalAlign=top;strokeColor=default;" parent="edge65" vertex="1" connectable="0">
          <mxGeometry x="2868" y="2318" as="geometry" />
        </mxCell>
        <mxCell id="label395" value="dbHandler" style="edgeLabel;resizable=0;html=1;align=left;verticalAlign=top;strokeColor=default;" parent="edge65" vertex="1" connectable="0">
          <mxGeometry x="2837" y="2328" as="geometry" />
        </mxCell>
        <mxCell id="edge7" value="" style="html=1;rounded=1;edgeStyle=orthogonalEdgeStyle;dashed=1;startArrow=none;endArrow=openThin;endSize=12;strokeColor=#595959;exitX=0.415;exitY=0.000;exitDx=0;exitDy=0;entryX=0.372;entryY=1.000;entryDx=0;entryDy=0;" parent="1" source="node7" target="node35" edge="1">
          <mxGeometry width="50" height="50" relative="1" as="geometry">
            <Array as="points" />
          </mxGeometry>
        </mxCell>
        <mxCell id="label44" value="«create»" style="edgeLabel;resizable=0;html=1;align=left;verticalAlign=top;strokeColor=default;" parent="edge7" vertex="1" connectable="0">
          <mxGeometry x="118" y="1257" as="geometry" />
        </mxCell>
        <mxCell id="edge35" value="" style="html=1;rounded=1;edgeStyle=orthogonalEdgeStyle;dashed=1;startArrow=none;endArrow=openThin;endSize=12;strokeColor=#595959;exitX=0.623;exitY=0.000;exitDx=0;exitDy=0;entryX=0.702;entryY=1.000;entryDx=0;entryDy=0;" parent="1" source="node36" target="node27" edge="1">
          <mxGeometry width="50" height="50" relative="1" as="geometry">
            <Array as="points" />
          </mxGeometry>
        </mxCell>
        <mxCell id="label212" value="«create»" style="edgeLabel;resizable=0;html=1;align=left;verticalAlign=top;strokeColor=default;" parent="edge35" vertex="1" connectable="0">
          <mxGeometry x="2887" y="1561" as="geometry" />
        </mxCell>
        <mxCell id="edge54" value="" style="html=1;rounded=1;edgeStyle=orthogonalEdgeStyle;dashed=1;startArrow=none;endArrow=openThin;endSize=12;strokeColor=#595959;exitX=1.000;exitY=0.500;exitDx=0;exitDy=0;entryX=0.224;entryY=1.000;entryDx=0;entryDy=0;" parent="1" source="node14" target="node27" edge="1">
          <mxGeometry width="50" height="50" relative="1" as="geometry">
            <Array as="points">
              <mxPoint x="2795" y="1093" />
            </Array>
          </mxGeometry>
        </mxCell>
        <mxCell id="label326" value="«create»" style="edgeLabel;resizable=0;html=1;align=left;verticalAlign=top;strokeColor=default;" parent="edge54" vertex="1" connectable="0">
          <mxGeometry x="2745" y="613" as="geometry" />
        </mxCell>
        <mxCell id="edge57" value="" style="html=1;rounded=1;edgeStyle=orthogonalEdgeStyle;dashed=0;startArrow=diamondThinstartSize=12;endArrow=openThin;endSize=12;strokeColor=#595959;exitX=0.515;exitY=1.000;exitDx=0;exitDy=0;entryX=0.255;entryY=1.000;entryDx=0;entryDy=0;" parent="1" source="node14" target="node27" edge="1">
          <mxGeometry width="50" height="50" relative="1" as="geometry">
            <Array as="points">
              <mxPoint x="2093" y="1196" />
              <mxPoint x="2801" y="1196" />
            </Array>
          </mxGeometry>
        </mxCell>
        <mxCell id="label342" value="1" style="edgeLabel;resizable=0;html=1;align=left;verticalAlign=top;strokeColor=default;" parent="edge57" vertex="1" connectable="0">
          <mxGeometry x="2093" y="1185" as="geometry" />
        </mxCell>
        <mxCell id="label346" value="1" style="edgeLabel;resizable=0;html=1;align=left;verticalAlign=top;strokeColor=default;" parent="edge57" vertex="1" connectable="0">
          <mxGeometry x="2790" y="128" as="geometry" />
        </mxCell>
        <mxCell id="label347" value="dbHandler" style="edgeLabel;resizable=0;html=1;align=left;verticalAlign=top;strokeColor=default;" parent="edge57" vertex="1" connectable="0">
          <mxGeometry x="2801" y="517" as="geometry" />
        </mxCell>
        <mxCell id="edge41" value="" style="html=1;rounded=1;edgeStyle=orthogonalEdgeStyle;dashed=1;startArrow=none;endArrow=openThin;endSize=12;strokeColor=#595959;exitX=0.500;exitY=0.000;exitDx=0;exitDy=0;entryX=0.532;entryY=0.000;entryDx=0;entryDy=0;" parent="1" source="node14" target="node35" edge="1">
          <mxGeometry width="50" height="50" relative="1" as="geometry">
            <Array as="points">
              <mxPoint x="2088" y="230" />
              <mxPoint x="193" y="230" />
            </Array>
          </mxGeometry>
        </mxCell>
        <mxCell id="label248" value="«create»" style="edgeLabel;resizable=0;html=1;align=left;verticalAlign=top;strokeColor=default;" parent="edge41" vertex="1" connectable="0">
          <mxGeometry x="1116" y="210" as="geometry" />
        </mxCell>
        <mxCell id="edge17" value="" style="html=1;rounded=1;edgeStyle=orthogonalEdgeStyle;dashed=1;startArrow=none;endArrow=openThin;endSize=12;strokeColor=#595959;exitX=0.485;exitY=1.000;exitDx=0;exitDy=0;entryX=1.000;entryY=0.167;entryDx=0;entryDy=0;" parent="1" source="node14" target="node26" edge="1">
          <mxGeometry width="50" height="50" relative="1" as="geometry">
            <Array as="points">
              <mxPoint x="2083" y="1403" />
            </Array>
          </mxGeometry>
        </mxCell>
        <mxCell id="label104" value="«create»" style="edgeLabel;resizable=0;html=1;align=left;verticalAlign=top;strokeColor=default;" parent="edge17" vertex="1" connectable="0">
          <mxGeometry x="1973" y="1418" as="geometry" />
        </mxCell>
        <mxCell id="edge60" value="" style="html=1;rounded=1;edgeStyle=orthogonalEdgeStyle;dashed=0;startArrow=diamondThinstartSize=12;endArrow=openThin;endSize=12;strokeColor=#595959;exitX=0.000;exitY=0.500;exitDx=0;exitDy=0;entryX=0.500;entryY=0.001;entryDx=0;entryDy=0;" parent="1" source="node14" target="node26" edge="1">
          <mxGeometry width="50" height="50" relative="1" as="geometry">
            <Array as="points">
              <mxPoint x="1728" y="1093" />
            </Array>
          </mxGeometry>
        </mxCell>
        <mxCell id="label360" value="1" style="edgeLabel;resizable=0;html=1;align=left;verticalAlign=top;strokeColor=default;" parent="edge60" vertex="1" connectable="0">
          <mxGeometry x="1871" y="1089" as="geometry" />
        </mxCell>
        <mxCell id="label364" value="1" style="edgeLabel;resizable=0;html=1;align=left;verticalAlign=top;strokeColor=default;" parent="edge60" vertex="1" connectable="0">
          <mxGeometry x="1768" y="1388" as="geometry" />
        </mxCell>
        <mxCell id="label365" value="connection" style="edgeLabel;resizable=0;html=1;align=left;verticalAlign=top;strokeColor=default;" parent="edge60" vertex="1" connectable="0">
          <mxGeometry x="1664" y="1247" as="geometry" />
        </mxCell>
        <mxCell id="edge55" value="" style="html=1;rounded=1;edgeStyle=orthogonalEdgeStyle;dashed=0;startArrow=diamondThinstartSize=12;endArrow=openThin;endSize=12;strokeColor=#595959;exitX=1.000;exitY=0.543;exitDx=0;exitDy=0;entryX=0.447;entryY=1.000;entryDx=0;entryDy=0;" parent="1" source="node2" target="node27" edge="1">
          <mxGeometry width="50" height="50" relative="1" as="geometry">
            <Array as="points">
              <mxPoint x="2838" y="2063" />
            </Array>
          </mxGeometry>
        </mxCell>
        <mxCell id="label330" value="1" style="edgeLabel;resizable=0;html=1;align=left;verticalAlign=top;strokeColor=default;" parent="edge55" vertex="1" connectable="0">
          <mxGeometry x="857" y="2043" as="geometry" />
        </mxCell>
        <mxCell id="label334" value="1" style="edgeLabel;resizable=0;html=1;align=left;verticalAlign=top;strokeColor=default;" parent="edge55" vertex="1" connectable="0">
          <mxGeometry x="2787" y="143" as="geometry" />
        </mxCell>
        <mxCell id="label335" value="dbHandler" style="edgeLabel;resizable=0;html=1;align=left;verticalAlign=top;strokeColor=default;" parent="edge55" vertex="1" connectable="0">
          <mxGeometry x="2838" y="143" as="geometry" />
        </mxCell>
        <mxCell id="edge58" value="" style="html=1;rounded=1;edgeStyle=orthogonalEdgeStyle;dashed=1;startArrow=none;endArrow=openThin;endSize=12;strokeColor=#595959;exitX=0.500;exitY=1.000;exitDx=0;exitDy=0;entryX=0.479;entryY=1.000;entryDx=0;entryDy=0;" parent="1" source="node2" target="node27" edge="1">
          <mxGeometry width="50" height="50" relative="1" as="geometry">
            <Array as="points">
              <mxPoint x="688" y="2176" />
              <mxPoint x="2844" y="2176" />
            </Array>
          </mxGeometry>
        </mxCell>
        <mxCell id="label350" value="«create»" style="edgeLabel;resizable=0;html=1;align=left;verticalAlign=top;strokeColor=default;" parent="edge58" vertex="1" connectable="0">
          <mxGeometry x="2794" y="1155" as="geometry" />
        </mxCell>
        <mxCell id="edge3" value="" style="html=1;rounded=1;edgeStyle=orthogonalEdgeStyle;dashed=1;startArrow=none;endArrow=openThin;endSize=12;strokeColor=#595959;exitX=0.000;exitY=0.500;exitDx=0;exitDy=0;entryX=0.436;entryY=1.000;entryDx=0;entryDy=0;" parent="1" source="node2" target="node35" edge="1">
          <mxGeometry width="50" height="50" relative="1" as="geometry">
            <Array as="points">
              <mxPoint x="178" y="2053" />
            </Array>
          </mxGeometry>
        </mxCell>
        <mxCell id="label20" value="«create»" style="edgeLabel;resizable=0;html=1;align=left;verticalAlign=top;strokeColor=default;" parent="edge3" vertex="1" connectable="0">
          <mxGeometry x="128" y="974" as="geometry" />
        </mxCell>
        <mxCell id="edge14" value="" style="html=1;rounded=1;edgeStyle=orthogonalEdgeStyle;dashed=1;startArrow=none;endArrow=openThin;endSize=12;strokeColor=#595959;exitX=1.000;exitY=0.446;exitDx=0;exitDy=0;entryX=0.649;entryY=1.001;entryDx=0;entryDy=0;" parent="1" source="node2" target="node26" edge="1">
          <mxGeometry width="50" height="50" relative="1" as="geometry">
            <Array as="points">
              <mxPoint x="1774" y="2041" />
            </Array>
          </mxGeometry>
        </mxCell>
        <mxCell id="label86" value="«create»" style="edgeLabel;resizable=0;html=1;align=left;verticalAlign=top;strokeColor=default;" parent="edge14" vertex="1" connectable="0">
          <mxGeometry x="1724" y="1732" as="geometry" />
        </mxCell>
        <mxCell id="edge32" value="" style="html=1;rounded=1;edgeStyle=orthogonalEdgeStyle;dashed=0;startArrow=diamondThinstartSize=12;endArrow=openThin;endSize=12;strokeColor=#595959;exitX=0.500;exitY=0.000;exitDx=0;exitDy=0;entryX=0.000;entryY=0.875;entryDx=0;entryDy=0;" parent="1" source="node2" target="node26" edge="1">
          <mxGeometry width="50" height="50" relative="1" as="geometry">
            <Array as="points">
              <mxPoint x="688" y="1425" />
            </Array>
          </mxGeometry>
        </mxCell>
        <mxCell id="label192" value="1" style="edgeLabel;resizable=0;html=1;align=left;verticalAlign=top;strokeColor=default;" parent="edge32" vertex="1" connectable="0">
          <mxGeometry x="677" y="1685" as="geometry" />
        </mxCell>
        <mxCell id="label196" value="1" style="edgeLabel;resizable=0;html=1;align=left;verticalAlign=top;strokeColor=default;" parent="edge32" vertex="1" connectable="0">
          <mxGeometry x="1572" y="1409" as="geometry" />
        </mxCell>
        <mxCell id="label197" value="connection" style="edgeLabel;resizable=0;html=1;align=left;verticalAlign=top;strokeColor=default;" parent="edge32" vertex="1" connectable="0">
          <mxGeometry x="1506" y="1527" as="geometry" />
        </mxCell>
        <mxCell id="edge31" value="" style="html=1;rounded=1;edgeStyle=orthogonalEdgeStyle;dashed=1;startArrow=none;endArrow=openThin;endSize=12;strokeColor=#595959;exitX=0.500;exitY=0.000;exitDx=0;exitDy=0;entryX=0.096;entryY=1.000;entryDx=0;entryDy=0;" parent="1" source="node29" target="node27" edge="1">
          <mxGeometry width="50" height="50" relative="1" as="geometry">
            <Array as="points">
              <mxPoint x="1348" y="647" />
              <mxPoint x="2770" y="647" />
            </Array>
          </mxGeometry>
        </mxCell>
        <mxCell id="label188" value="«create»" style="edgeLabel;resizable=0;html=1;align=left;verticalAlign=top;strokeColor=default;" parent="edge31" vertex="1" connectable="0">
          <mxGeometry x="2720" y="390" as="geometry" />
        </mxCell>
        <mxCell id="edge67" value="" style="html=1;rounded=1;edgeStyle=orthogonalEdgeStyle;dashed=0;startArrow=diamondThinstartSize=12;endArrow=openThin;endSize=12;strokeColor=#595959;exitX=1.000;exitY=0.360;exitDx=0;exitDy=0;entryX=0.192;entryY=1.000;entryDx=0;entryDy=0;" parent="1" source="node29" target="node27" edge="1">
          <mxGeometry width="50" height="50" relative="1" as="geometry">
            <Array as="points">
              <mxPoint x="2789" y="928" />
            </Array>
          </mxGeometry>
        </mxCell>
        <mxCell id="label402" value="1" style="edgeLabel;resizable=0;html=1;align=left;verticalAlign=top;strokeColor=default;" parent="edge67" vertex="1" connectable="0">
          <mxGeometry x="1777" y="913" as="geometry" />
        </mxCell>
        <mxCell id="label406" value="1" style="edgeLabel;resizable=0;html=1;align=left;verticalAlign=top;strokeColor=default;" parent="edge67" vertex="1" connectable="0">
          <mxGeometry x="2778" y="128" as="geometry" />
        </mxCell>
        <mxCell id="label407" value="dbHandler" style="edgeLabel;resizable=0;html=1;align=left;verticalAlign=top;strokeColor=default;" parent="edge67" vertex="1" connectable="0">
          <mxGeometry x="2826" y="169" as="geometry" />
        </mxCell>
        <mxCell id="edge30" value="" style="html=1;rounded=1;edgeStyle=orthogonalEdgeStyle;dashed=1;startArrow=none;endArrow=openThin;endSize=12;strokeColor=#595959;exitX=0.000;exitY=0.500;exitDx=0;exitDy=0;entryX=0.500;entryY=1.000;entryDx=0;entryDy=0;" parent="1" source="node29" target="node35" edge="1">
          <mxGeometry width="50" height="50" relative="1" as="geometry">
            <Array as="points">
              <mxPoint x="188" y="953" />
            </Array>
          </mxGeometry>
        </mxCell>
        <mxCell id="label182" value="«create»" style="edgeLabel;resizable=0;html=1;align=left;verticalAlign=top;strokeColor=default;" parent="edge30" vertex="1" connectable="0">
          <mxGeometry x="138" y="607" as="geometry" />
        </mxCell>
        <mxCell id="edge72" value="" style="html=1;rounded=1;edgeStyle=orthogonalEdgeStyle;dashed=0;startArrow=diamondThinstartSize=12;endArrow=openThin;endSize=12;strokeColor=#595959;exitX=1.000;exitY=0.528;exitDx=0;exitDy=0;entryX=0.000;entryY=0.125;entryDx=0;entryDy=0;" parent="1" source="node29" target="node26" edge="1">
          <mxGeometry width="50" height="50" relative="1" as="geometry">
            <Array as="points">
              <mxPoint x="1514" y="958" />
              <mxPoint x="1514" y="1401" />
            </Array>
          </mxGeometry>
        </mxCell>
        <mxCell id="label432" value="1" style="edgeLabel;resizable=0;html=1;align=left;verticalAlign=top;strokeColor=default;" parent="edge72" vertex="1" connectable="0">
          <mxGeometry x="1507" y="943" as="geometry" />
        </mxCell>
        <mxCell id="label436" value="1" style="edgeLabel;resizable=0;html=1;align=left;verticalAlign=top;strokeColor=default;" parent="edge72" vertex="1" connectable="0">
          <mxGeometry x="1542" y="1341" as="geometry" />
        </mxCell>
        <mxCell id="label437" value="connection" style="edgeLabel;resizable=0;html=1;align=left;verticalAlign=top;strokeColor=default;" parent="edge72" vertex="1" connectable="0">
          <mxGeometry x="1526" y="1423" as="geometry" />
        </mxCell>
        <mxCell id="edge74" value="" style="html=1;rounded=1;edgeStyle=orthogonalEdgeStyle;dashed=1;startArrow=none;endArrow=openThin;endSize=12;strokeColor=#595959;exitX=0.500;exitY=1.000;exitDx=0;exitDy=0;entryX=0.000;entryY=0.250;entryDx=0;entryDy=0;" parent="1" source="node29" target="node26" edge="1">
          <mxGeometry width="50" height="50" relative="1" as="geometry">
            <Array as="points">
              <mxPoint x="1348" y="1405" />
            </Array>
          </mxGeometry>
        </mxCell>
        <mxCell id="label446" value="«create»" style="edgeLabel;resizable=0;html=1;align=left;verticalAlign=top;strokeColor=default;" parent="edge74" vertex="1" connectable="0">
          <mxGeometry x="1436" y="1370" as="geometry" />
        </mxCell>
        <mxCell id="edge19" value="" style="html=1;rounded=1;edgeStyle=orthogonalEdgeStyle;dashed=1;startArrow=none;endArrow=openThin;endSize=12;strokeColor=#595959;exitX=0.500;exitY=0.000;exitDx=0;exitDy=0;entryX=0.500;entryY=0.000;entryDx=0;entryDy=0;" parent="1" source="node6" target="node27" edge="1">
          <mxGeometry width="50" height="50" relative="1" as="geometry">
            <Array as="points">
              <mxPoint x="188" y="-18" />
              <mxPoint x="2848" y="-18" />
            </Array>
          </mxGeometry>
        </mxCell>
        <mxCell id="label116" value="«create»" style="edgeLabel;resizable=0;html=1;align=left;verticalAlign=top;strokeColor=default;" parent="edge19" vertex="1" connectable="0">
          <mxGeometry x="2848" y="-21" as="geometry" />
        </mxCell>
        <mxCell id="edge21" value="" style="html=1;rounded=1;edgeStyle=orthogonalEdgeStyle;dashed=0;startArrow=diamondThinstartSize=12;endArrow=openThin;endSize=12;strokeColor=#595959;exitX=1.000;exitY=0.247;exitDx=0;exitDy=0;entryX=0.000;entryY=0.154;entryDx=0;entryDy=0;" parent="1" source="node6" target="node27" edge="1">
          <mxGeometry width="50" height="50" relative="1" as="geometry">
            <Array as="points" />
          </mxGeometry>
        </mxCell>
        <mxCell id="label126" value="1" style="edgeLabel;resizable=0;html=1;align=left;verticalAlign=top;strokeColor=default;" parent="edge21" vertex="1" connectable="0">
          <mxGeometry x="301" y="13" as="geometry" />
        </mxCell>
        <mxCell id="label130" value="1" style="edgeLabel;resizable=0;html=1;align=left;verticalAlign=top;strokeColor=default;" parent="edge21" vertex="1" connectable="0">
          <mxGeometry x="301" y="-32" as="geometry" />
        </mxCell>
        <mxCell id="label131" value="dbHandler" style="edgeLabel;resizable=0;html=1;align=left;verticalAlign=top;strokeColor=default;" parent="edge21" vertex="1" connectable="0">
          <mxGeometry x="2502" y="52" as="geometry" />
        </mxCell>
        <mxCell id="edge29" value="" style="html=1;rounded=1;edgeStyle=orthogonalEdgeStyle;dashed=1;startArrow=none;endArrow=openThin;endSize=12;strokeColor=#595959;exitX=0.477;exitY=1.000;exitDx=0;exitDy=0;entryX=0.468;entryY=0.000;entryDx=0;entryDy=0;" parent="1" source="node6" target="node35" edge="1">
          <mxGeometry width="50" height="50" relative="1" as="geometry">
            <Array as="points" />
          </mxGeometry>
        </mxCell>
        <mxCell id="label176" value="«create»" style="edgeLabel;resizable=0;html=1;align=left;verticalAlign=top;strokeColor=default;" parent="edge29" vertex="1" connectable="0">
          <mxGeometry x="183" y="187" as="geometry" />
        </mxCell>
        <mxCell id="edge36" value="" style="html=1;rounded=1;edgeStyle=orthogonalEdgeStyle;dashed=1;startArrow=none;endArrow=openThin;endSize=12;strokeColor=#595959;exitX=0.500;exitY=1.000;exitDx=0;exitDy=0;entryX=0.671;entryY=1.000;entryDx=0;entryDy=0;" parent="1" source="node41" target="node27" edge="1">
          <mxGeometry width="50" height="50" relative="1" as="geometry">
            <Array as="points">
              <mxPoint x="-72" y="2464" />
              <mxPoint x="2881" y="2464" />
            </Array>
          </mxGeometry>
        </mxCell>
        <mxCell id="label218" value="«create»" style="edgeLabel;resizable=0;html=1;align=left;verticalAlign=top;strokeColor=default;" parent="edge36" vertex="1" connectable="0">
          <mxGeometry x="2831" y="1299" as="geometry" />
        </mxCell>
        <mxCell id="edge62" value="" style="html=1;rounded=1;edgeStyle=orthogonalEdgeStyle;dashed=0;startArrow=diamondThinstartSize=12;endArrow=openThin;endSize=12;strokeColor=#595959;exitX=1.000;exitY=0.500;exitDx=0;exitDy=0;entryX=0.639;entryY=1.000;entryDx=0;entryDy=0;" parent="1" source="node41" target="node27" edge="1">
          <mxGeometry width="50" height="50" relative="1" as="geometry">
            <Array as="points">
              <mxPoint x="2875" y="2373" />
            </Array>
          </mxGeometry>
        </mxCell>
        <mxCell id="label372" value="1" style="edgeLabel;resizable=0;html=1;align=left;verticalAlign=top;strokeColor=default;" parent="edge62" vertex="1" connectable="0">
          <mxGeometry x="48" y="2358" as="geometry" />
        </mxCell>
        <mxCell id="label376" value="1" style="edgeLabel;resizable=0;html=1;align=left;verticalAlign=top;strokeColor=default;" parent="edge62" vertex="1" connectable="0">
          <mxGeometry x="2824" y="939" as="geometry" />
        </mxCell>
        <mxCell id="label377" value="dbHandler" style="edgeLabel;resizable=0;html=1;align=left;verticalAlign=top;strokeColor=default;" parent="edge62" vertex="1" connectable="0">
          <mxGeometry x="2844" y="218" as="geometry" />
        </mxCell>
        <mxCell id="edge11" value="" style="html=1;rounded=1;edgeStyle=orthogonalEdgeStyle;dashed=1;startArrow=none;endArrow=openThin;endSize=12;strokeColor=#595959;exitX=0.500;exitY=0.000;exitDx=0;exitDy=0;entryX=0.000;entryY=0.500;entryDx=0;entryDy=0;" parent="1" source="node41" target="node35" edge="1">
          <mxGeometry width="50" height="50" relative="1" as="geometry">
            <Array as="points">
              <mxPoint x="-72" y="333" />
            </Array>
          </mxGeometry>
        </mxCell>
        <mxCell id="label68" value="«create»" style="edgeLabel;resizable=0;html=1;align=left;verticalAlign=top;strokeColor=default;" parent="edge11" vertex="1" connectable="0">
          <mxGeometry x="30" y="298" as="geometry" />
        </mxCell>
        <mxCell id="edge13" value="" style="html=1;rounded=1;edgeStyle=orthogonalEdgeStyle;dashed=1;startArrow=none;endArrow=openThin;endSize=12;strokeColor=#595959;exitX=0.500;exitY=0.000;exitDx=0;exitDy=0;entryX=0.032;entryY=1.000;entryDx=0;entryDy=0;" parent="1" source="node8" target="node27" edge="1">
          <mxGeometry width="50" height="50" relative="1" as="geometry">
            <Array as="points">
              <mxPoint x="948" y="382" />
              <mxPoint x="2758" y="382" />
            </Array>
          </mxGeometry>
        </mxCell>
        <mxCell id="label80" value="«create»" style="edgeLabel;resizable=0;html=1;align=left;verticalAlign=top;strokeColor=default;" parent="edge13" vertex="1" connectable="0">
          <mxGeometry x="2708" y="258" as="geometry" />
        </mxCell>
        <mxCell id="edge66" value="" style="html=1;rounded=1;edgeStyle=orthogonalEdgeStyle;dashed=0;startArrow=diamondThinstartSize=12;endArrow=openThin;endSize=12;strokeColor=#595959;exitX=1.000;exitY=0.500;exitDx=0;exitDy=0;entryX=0.160;entryY=1.000;entryDx=0;entryDy=0;" parent="1" source="node8" target="node27" edge="1">
          <mxGeometry width="50" height="50" relative="1" as="geometry">
            <Array as="points">
              <mxPoint x="2783" y="773" />
            </Array>
          </mxGeometry>
        </mxCell>
        <mxCell id="label396" value="1" style="edgeLabel;resizable=0;html=1;align=left;verticalAlign=top;strokeColor=default;" parent="edge66" vertex="1" connectable="0">
          <mxGeometry x="1450" y="758" as="geometry" />
        </mxCell>
        <mxCell id="label400" value="1" style="edgeLabel;resizable=0;html=1;align=left;verticalAlign=top;strokeColor=default;" parent="edge66" vertex="1" connectable="0">
          <mxGeometry x="2777" y="646" as="geometry" />
        </mxCell>
        <mxCell id="label401" value="dbHandle" style="edgeLabel;resizable=0;html=1;align=left;verticalAlign=top;strokeColor=default;" parent="edge66" vertex="1" connectable="0">
          <mxGeometry x="2783" y="128" as="geometry" />
        </mxCell>
        <mxCell id="edge42" value="" style="html=1;rounded=1;edgeStyle=orthogonalEdgeStyle;dashed=1;startArrow=none;endArrow=openThin;endSize=12;strokeColor=#595959;exitX=0.000;exitY=0.609;exitDx=0;exitDy=0;entryX=0.564;entryY=1.000;entryDx=0;entryDy=0;" parent="1" source="node8" target="node35" edge="1">
          <mxGeometry width="50" height="50" relative="1" as="geometry">
            <Array as="points">
              <mxPoint x="198" y="803" />
            </Array>
          </mxGeometry>
        </mxCell>
        <mxCell id="label254" value="«create»" style="edgeLabel;resizable=0;html=1;align=left;verticalAlign=top;strokeColor=default;" parent="edge42" vertex="1" connectable="0">
          <mxGeometry x="148" y="557" as="geometry" />
        </mxCell>
        <mxCell id="edge8" value="" style="html=1;rounded=1;edgeStyle=orthogonalEdgeStyle;dashed=0;startArrow=diamondThinstartSize=12;endArrow=openThin;endSize=12;strokeColor=#595959;exitX=0.500;exitY=1.000;exitDx=0;exitDy=0;entryX=0.000;entryY=0.500;entryDx=0;entryDy=0;" parent="1" source="node8" target="node26" edge="1">
          <mxGeometry width="50" height="50" relative="1" as="geometry">
            <Array as="points">
              <mxPoint x="948" y="1413" />
            </Array>
          </mxGeometry>
        </mxCell>
        <mxCell id="label48" value="1" style="edgeLabel;resizable=0;html=1;align=left;verticalAlign=top;strokeColor=default;" parent="edge8" vertex="1" connectable="0">
          <mxGeometry x="948" y="915" as="geometry" />
        </mxCell>
        <mxCell id="label52" value="1" style="edgeLabel;resizable=0;html=1;align=left;verticalAlign=top;strokeColor=default;" parent="edge8" vertex="1" connectable="0">
          <mxGeometry x="1291" y="1398" as="geometry" />
        </mxCell>
        <mxCell id="label53" value="connectionToInternet" style="edgeLabel;resizable=0;html=1;align=left;verticalAlign=top;strokeColor=default;" parent="edge8" vertex="1" connectable="0">
          <mxGeometry x="1243" y="1453" as="geometry" />
        </mxCell>
        <mxCell id="edge73" value="" style="html=1;rounded=1;edgeStyle=orthogonalEdgeStyle;dashed=1;startArrow=none;endArrow=openThin;endSize=12;strokeColor=#595959;exitX=0.000;exitY=0.646;exitDx=0;exitDy=0;entryX=0.000;entryY=0.625;entryDx=0;entryDy=0;" parent="1" source="node8" target="node26" edge="1">
          <mxGeometry width="50" height="50" relative="1" as="geometry">
            <Array as="points">
              <mxPoint x="670" y="813" />
              <mxPoint x="670" y="1417" />
            </Array>
          </mxGeometry>
        </mxCell>
        <mxCell id="label440" value="«create»" style="edgeLabel;resizable=0;html=1;align=left;verticalAlign=top;strokeColor=default;" parent="edge73" vertex="1" connectable="0">
          <mxGeometry x="1081" y="1382" as="geometry" />
        </mxCell>
        <mxCell id="edge26" value="" style="html=1;rounded=1;edgeStyle=orthogonalEdgeStyle;dashed=1;startArrow=none;endArrow=openThin;endSize=12;strokeColor=#595959;exitX=1.000;exitY=0.500;exitDx=0;exitDy=0;entryX=0.319;entryY=1.000;entryDx=0;entryDy=0;" parent="1" source="node33" target="node27" edge="1">
          <mxGeometry width="50" height="50" relative="1" as="geometry">
            <Array as="points">
              <mxPoint x="2813" y="1593" />
            </Array>
          </mxGeometry>
        </mxCell>
        <mxCell id="label158" value="«create»" style="edgeLabel;resizable=0;html=1;align=left;verticalAlign=top;strokeColor=default;" parent="edge26" vertex="1" connectable="0">
          <mxGeometry x="2763" y="863" as="geometry" />
        </mxCell>
        <mxCell id="edge59" value="" style="html=1;rounded=1;edgeStyle=orthogonalEdgeStyle;dashed=0;startArrow=diamondThinstartSize=12;endArrow=openThin;endSize=12;strokeColor=#595959;exitX=0.500;exitY=1.000;exitDx=0;exitDy=0;entryX=0.351;entryY=1.000;entryDx=0;entryDy=0;" parent="1" source="node33" target="node27" edge="1">
          <mxGeometry width="50" height="50" relative="1" as="geometry">
            <Array as="points">
              <mxPoint x="2108" y="1680" />
              <mxPoint x="2819" y="1680" />
            </Array>
          </mxGeometry>
        </mxCell>
        <mxCell id="label354" value="1" style="edgeLabel;resizable=0;html=1;align=left;verticalAlign=top;strokeColor=default;" parent="edge59" vertex="1" connectable="0">
          <mxGeometry x="2108" y="1666" as="geometry" />
        </mxCell>
        <mxCell id="label358" value="1" style="edgeLabel;resizable=0;html=1;align=left;verticalAlign=top;strokeColor=default;" parent="edge59" vertex="1" connectable="0">
          <mxGeometry x="2808" y="691" as="geometry" />
        </mxCell>
        <mxCell id="label359" value="dbHandler" style="edgeLabel;resizable=0;html=1;align=left;verticalAlign=top;strokeColor=default;" parent="edge59" vertex="1" connectable="0">
          <mxGeometry x="2819" y="691" as="geometry" />
        </mxCell>
        <mxCell id="edge46" value="" style="html=1;rounded=1;edgeStyle=orthogonalEdgeStyle;dashed=0;startArrow=diamondThinstartSize=12;endArrow=openThin;endSize=12;strokeColor=#595959;exitX=0.500;exitY=0.000;exitDx=0;exitDy=0;entryX=1.000;entryY=0.667;entryDx=0;entryDy=0;" parent="1" source="node33" target="node26" edge="1">
          <mxGeometry width="50" height="50" relative="1" as="geometry">
            <Array as="points">
              <mxPoint x="2108" y="1418" />
            </Array>
          </mxGeometry>
        </mxCell>
        <mxCell id="label276" value="1" style="edgeLabel;resizable=0;html=1;align=left;verticalAlign=top;strokeColor=default;" parent="edge46" vertex="1" connectable="0">
          <mxGeometry x="2097" y="1491" as="geometry" />
        </mxCell>
        <mxCell id="label280" value="1" style="edgeLabel;resizable=0;html=1;align=left;verticalAlign=top;strokeColor=default;" parent="edge46" vertex="1" connectable="0">
          <mxGeometry x="2039" y="1458" as="geometry" />
        </mxCell>
        <mxCell id="label281" value="connection" style="edgeLabel;resizable=0;html=1;align=left;verticalAlign=top;strokeColor=default;" parent="edge46" vertex="1" connectable="0">
          <mxGeometry x="1885" y="1358" as="geometry" />
        </mxCell>
        <mxCell id="edge51" value="" style="html=1;rounded=1;edgeStyle=orthogonalEdgeStyle;dashed=1;startArrow=none;endArrow=openThin;endSize=12;strokeColor=#595959;exitX=0.000;exitY=0.500;exitDx=0;exitDy=0;entryX=1.000;entryY=0.833;entryDx=0;entryDy=0;" parent="1" source="node33" target="node26" edge="1">
          <mxGeometry width="50" height="50" relative="1" as="geometry">
            <Array as="points">
              <mxPoint x="1923" y="1593" />
              <mxPoint x="1923" y="1423" />
            </Array>
          </mxGeometry>
        </mxCell>
        <mxCell id="label308" value="«create»" style="edgeLabel;resizable=0;html=1;align=left;verticalAlign=top;strokeColor=default;" parent="edge51" vertex="1" connectable="0">
          <mxGeometry x="1878" y="1438" as="geometry" />
        </mxCell>
        <mxCell id="edge25" value="" style="html=1;rounded=1;edgeStyle=orthogonalEdgeStyle;dashed=1;startArrow=none;endArrow=openThin;endSize=12;strokeColor=#595959;exitX=0.500;exitY=0.000;exitDx=0;exitDy=0;entryX=0.383;entryY=1.000;entryDx=0;entryDy=0;" parent="1" source="node0" target="node27" edge="1">
          <mxGeometry width="50" height="50" relative="1" as="geometry">
            <Array as="points">
              <mxPoint x="2108" y="1705" />
              <mxPoint x="2826" y="1705" />
            </Array>
          </mxGeometry>
        </mxCell>
        <mxCell id="label152" value="«create»" style="edgeLabel;resizable=0;html=1;align=left;verticalAlign=top;strokeColor=default;" parent="edge25" vertex="1" connectable="0">
          <mxGeometry x="2776" y="660" as="geometry" />
        </mxCell>
        <mxCell id="edge69" value="" style="html=1;rounded=1;edgeStyle=orthogonalEdgeStyle;dashed=0;startArrow=diamondThinstartSize=12;endArrow=openThin;endSize=12;strokeColor=#595959;exitX=1.000;exitY=0.500;exitDx=0;exitDy=0;entryX=0.415;entryY=1.000;entryDx=0;entryDy=0;" parent="1" source="node0" target="node27" edge="1">
          <mxGeometry width="50" height="50" relative="1" as="geometry">
            <Array as="points">
              <mxPoint x="2832" y="1873" />
            </Array>
          </mxGeometry>
        </mxCell>
        <mxCell id="label414" value="1" style="edgeLabel;resizable=0;html=1;align=left;verticalAlign=top;strokeColor=default;" parent="edge69" vertex="1" connectable="0">
          <mxGeometry x="2386" y="1858" as="geometry" />
        </mxCell>
        <mxCell id="label418" value="1" style="edgeLabel;resizable=0;html=1;align=left;verticalAlign=top;strokeColor=default;" parent="edge69" vertex="1" connectable="0">
          <mxGeometry x="2781" y="760" as="geometry" />
        </mxCell>
        <mxCell id="label419" value="dbHandler" style="edgeLabel;resizable=0;html=1;align=left;verticalAlign=top;strokeColor=default;" parent="edge69" vertex="1" connectable="0">
          <mxGeometry x="2801" y="1873" as="geometry" />
        </mxCell>
        <mxCell id="edge70" value="" style="html=1;rounded=1;edgeStyle=orthogonalEdgeStyle;dashed=0;startArrow=diamondThinstartSize=12;endArrow=openThin;endSize=12;strokeColor=#595959;exitX=0.000;exitY=0.500;exitDx=0;exitDy=0;entryX=0.714;entryY=1.001;entryDx=0;entryDy=0;" parent="1" source="node0" target="node26" edge="1">
          <mxGeometry width="50" height="50" relative="1" as="geometry">
            <Array as="points">
              <mxPoint x="1794" y="1873" />
            </Array>
          </mxGeometry>
        </mxCell>
        <mxCell id="label420" value="1" style="edgeLabel;resizable=0;html=1;align=left;verticalAlign=top;strokeColor=default;" parent="edge70" vertex="1" connectable="0">
          <mxGeometry x="1929" y="1869" as="geometry" />
        </mxCell>
        <mxCell id="label424" value="1" style="edgeLabel;resizable=0;html=1;align=left;verticalAlign=top;strokeColor=default;" parent="edge70" vertex="1" connectable="0">
          <mxGeometry x="1743" y="1498" as="geometry" />
        </mxCell>
        <mxCell id="label425" value="connection" style="edgeLabel;resizable=0;html=1;align=left;verticalAlign=top;strokeColor=default;" parent="edge70" vertex="1" connectable="0">
          <mxGeometry x="1816" y="1451" as="geometry" />
        </mxCell>
        <mxCell id="edge71" value="" style="html=1;rounded=1;edgeStyle=orthogonalEdgeStyle;dashed=1;startArrow=none;endArrow=openThin;endSize=12;strokeColor=#595959;exitX=0.500;exitY=1.000;exitDx=0;exitDy=0;entryX=0.681;entryY=1.001;entryDx=0;entryDy=0;" parent="1" source="node0" target="node26" edge="1">
          <mxGeometry width="50" height="50" relative="1" as="geometry">
            <Array as="points">
              <mxPoint x="2108" y="2028" />
              <mxPoint x="1784" y="2028" />
            </Array>
          </mxGeometry>
        </mxCell>
        <mxCell id="label428" value="«create»" style="edgeLabel;resizable=0;html=1;align=left;verticalAlign=top;strokeColor=default;" parent="edge71" vertex="1" connectable="0">
          <mxGeometry x="1734" y="1531" as="geometry" />
        </mxCell>
        <mxCell id="edge2" value="" style="html=1;rounded=1;edgeStyle=orthogonalEdgeStyle;dashed=0;startArrow=diamondThinstartSize=12;endArrow=openThin;endSize=12;strokeColor=#595959;exitX=0.500;exitY=0.000;exitDx=0;exitDy=0;entryX=0.128;entryY=1.000;entryDx=0;entryDy=0;" parent="1" source="node43" target="node27" edge="1">
          <mxGeometry width="50" height="50" relative="1" as="geometry">
            <Array as="points">
              <mxPoint x="2508" y="657" />
              <mxPoint x="2777" y="657" />
            </Array>
          </mxGeometry>
        </mxCell>
        <mxCell id="label12" value="1" style="edgeLabel;resizable=0;html=1;align=left;verticalAlign=top;strokeColor=default;" parent="edge2" vertex="1" connectable="0">
          <mxGeometry x="2497" y="1142" as="geometry" />
        </mxCell>
        <mxCell id="label16" value="1" style="edgeLabel;resizable=0;html=1;align=left;verticalAlign=top;strokeColor=default;" parent="edge2" vertex="1" connectable="0">
          <mxGeometry x="2771" y="172" as="geometry" />
        </mxCell>
        <mxCell id="label17" value="dbHandler" style="edgeLabel;resizable=0;html=1;align=left;verticalAlign=top;strokeColor=default;" parent="edge2" vertex="1" connectable="0">
          <mxGeometry x="2746" y="182" as="geometry" />
        </mxCell>
        <mxCell id="edge68" value="" style="html=1;rounded=1;edgeStyle=orthogonalEdgeStyle;dashed=1;startArrow=none;endArrow=openThin;endSize=12;strokeColor=#595959;exitX=1.000;exitY=0.500;exitDx=0;exitDy=0;entryX=0.287;entryY=1.000;entryDx=0;entryDy=0;" parent="1" source="node43" target="node27" edge="1">
          <mxGeometry width="50" height="50" relative="1" as="geometry">
            <Array as="points">
              <mxPoint x="2807" y="1413" />
            </Array>
          </mxGeometry>
        </mxCell>
        <mxCell id="label410" value="«create»" style="edgeLabel;resizable=0;html=1;align=left;verticalAlign=top;strokeColor=default;" parent="edge68" vertex="1" connectable="0">
          <mxGeometry x="2757" y="773" as="geometry" />
        </mxCell>
        <mxCell id="edge28" value="" style="html=1;rounded=1;edgeStyle=orthogonalEdgeStyle;dashed=0;startArrow=diamondThinstartSize=12;endArrow=openThin;endSize=12;strokeColor=#595959;exitX=0.000;exitY=0.479;exitDx=0;exitDy=0;entryX=1.000;entryY=0.333;entryDx=0;entryDy=0;" parent="1" source="node43" target="node26" edge="1">
          <mxGeometry width="50" height="50" relative="1" as="geometry">
            <Array as="points" />
          </mxGeometry>
        </mxCell>
        <mxCell id="label168" value="1" style="edgeLabel;resizable=0;html=1;align=left;verticalAlign=top;strokeColor=default;" parent="edge28" vertex="1" connectable="0">
          <mxGeometry x="2326" y="1403" as="geometry" />
        </mxCell>
        <mxCell id="label172" value="1" style="edgeLabel;resizable=0;html=1;align=left;verticalAlign=top;strokeColor=default;" parent="edge28" vertex="1" connectable="0">
          <mxGeometry x="1954" y="1403" as="geometry" />
        </mxCell>
        <mxCell id="label173" value="connection" style="edgeLabel;resizable=0;html=1;align=left;verticalAlign=top;strokeColor=default;" parent="edge28" vertex="1" connectable="0">
          <mxGeometry x="1914" y="1366" as="geometry" />
        </mxCell>
        <mxCell id="edge52" value="" style="html=1;rounded=1;edgeStyle=orthogonalEdgeStyle;dashed=1;startArrow=none;endArrow=openThin;endSize=12;strokeColor=#595959;exitX=0.500;exitY=1.000;exitDx=0;exitDy=0;entryX=1.000;entryY=0.500;entryDx=0;entryDy=0;" parent="1" source="node43" target="node26" edge="1">
          <mxGeometry width="50" height="50" relative="1" as="geometry">
            <Array as="points">
              <mxPoint x="2508" y="1540" />
              <mxPoint x="2332" y="1540" />
              <mxPoint x="2332" y="1413" />
            </Array>
          </mxGeometry>
        </mxCell>
        <mxCell id="label314" value="«create»" style="edgeLabel;resizable=0;html=1;align=left;verticalAlign=top;strokeColor=default;" parent="edge52" vertex="1" connectable="0">
          <mxGeometry x="2282" y="1467" as="geometry" />
        </mxCell>
        <mxCell id="edge22" value="" style="html=1;rounded=1;edgeStyle=orthogonalEdgeStyle;dashed=0;startArrow=diamondThinstartSize=12;endArrow=openThin;endSize=12;strokeColor=#595959;exitX=1.000;exitY=0.522;exitDx=0;exitDy=0;entryX=0.064;entryY=1.000;entryDx=0;entryDy=0;" parent="1" source="node38" target="node27" edge="1">
          <mxGeometry width="50" height="50" relative="1" as="geometry">
            <Array as="points">
              <mxPoint x="2764" y="598" />
            </Array>
          </mxGeometry>
        </mxCell>
        <mxCell id="label132" value="1" style="edgeLabel;resizable=0;html=1;align=left;verticalAlign=top;strokeColor=default;" parent="edge22" vertex="1" connectable="0">
          <mxGeometry x="677" y="583" as="geometry" />
        </mxCell>
        <mxCell id="label136" value="1" style="edgeLabel;resizable=0;html=1;align=left;verticalAlign=top;strokeColor=default;" parent="edge22" vertex="1" connectable="0">
          <mxGeometry x="2753" y="143" as="geometry" />
        </mxCell>
        <mxCell id="label137" value="dbHandler" style="edgeLabel;resizable=0;html=1;align=left;verticalAlign=top;strokeColor=default;" parent="edge22" vertex="1" connectable="0">
          <mxGeometry x="2822" y="177" as="geometry" />
        </mxCell>
        <mxCell id="edge23" value="" style="html=1;rounded=1;edgeStyle=orthogonalEdgeStyle;dashed=1;startArrow=none;endArrow=openThin;endSize=12;strokeColor=#595959;exitX=0.515;exitY=0.000;exitDx=0;exitDy=0;entryX=0.000;entryY=0.231;entryDx=0;entryDy=0;" parent="1" source="node38" target="node27" edge="1">
          <mxGeometry width="50" height="50" relative="1" as="geometry">
            <Array as="points">
              <mxPoint x="513" y="38" />
            </Array>
          </mxGeometry>
        </mxCell>
        <mxCell id="label140" value="«create»" style="edgeLabel;resizable=0;html=1;align=left;verticalAlign=top;strokeColor=default;" parent="edge23" vertex="1" connectable="0">
          <mxGeometry x="1593" y="3" as="geometry" />
        </mxCell>
        <mxCell id="edge10" value="" style="html=1;rounded=1;edgeStyle=orthogonalEdgeStyle;dashed=0;startArrow=diamondThinstartSize=12;endArrow=openThin;endSize=12;strokeColor=#595959;exitX=0.485;exitY=0.000;exitDx=0;exitDy=0;entryX=1.000;entryY=0.500;entryDx=0;entryDy=0;" parent="1" source="node38" target="node35" edge="1">
          <mxGeometry width="50" height="50" relative="1" as="geometry">
            <Array as="points">
              <mxPoint x="503" y="333" />
            </Array>
          </mxGeometry>
        </mxCell>
        <mxCell id="label60" value="1" style="edgeLabel;resizable=0;html=1;align=left;verticalAlign=top;strokeColor=default;" parent="edge10" vertex="1" connectable="0">
          <mxGeometry x="492" y="395" as="geometry" />
        </mxCell>
        <mxCell id="label64" value="1" style="edgeLabel;resizable=0;html=1;align=left;verticalAlign=top;strokeColor=default;" parent="edge10" vertex="1" connectable="0">
          <mxGeometry x="338" y="329" as="geometry" />
        </mxCell>
        <mxCell id="label65" value="user" style="edgeLabel;resizable=0;html=1;align=left;verticalAlign=top;strokeColor=default;" parent="edge10" vertex="1" connectable="0">
          <mxGeometry x="336" y="309" as="geometry" />
        </mxCell>
        <mxCell id="edge37" value="" style="html=1;rounded=1;edgeStyle=orthogonalEdgeStyle;dashed=1;startArrow=none;endArrow=openThin;endSize=12;strokeColor=#595959;exitX=0.000;exitY=0.500;exitDx=0;exitDy=0;entryX=0.628;entryY=1.000;entryDx=0;entryDy=0;" parent="1" source="node38" target="node35" edge="1">
          <mxGeometry width="50" height="50" relative="1" as="geometry">
            <Array as="points">
              <mxPoint x="208" y="593" />
            </Array>
          </mxGeometry>
        </mxCell>
        <mxCell id="label224" value="«create»" style="edgeLabel;resizable=0;html=1;align=left;verticalAlign=top;strokeColor=default;" parent="edge37" vertex="1" connectable="0">
          <mxGeometry x="158" y="511" as="geometry" />
        </mxCell>
        <mxCell id="edge43" value="" style="html=1;rounded=1;edgeStyle=orthogonalEdgeStyle;dashed=1;startArrow=none;endArrow=openThin;endSize=12;strokeColor=#595959;exitX=0.500;exitY=1.000;exitDx=0;exitDy=0;entryX=0.000;entryY=0.750;entryDx=0;entryDy=0;" parent="1" source="node38" target="node26" edge="1">
          <mxGeometry width="50" height="50" relative="1" as="geometry">
            <Array as="points">
              <mxPoint x="508" y="1421" />
            </Array>
          </mxGeometry>
        </mxCell>
        <mxCell id="label260" value="«create»" style="edgeLabel;resizable=0;html=1;align=left;verticalAlign=top;strokeColor=default;" parent="edge43" vertex="1" connectable="0">
          <mxGeometry x="828" y="1386" as="geometry" />
        </mxCell>
        <mxCell id="edge63" value="" style="html=1;rounded=1;edgeStyle=orthogonalEdgeStyle;dashed=0;startArrow=diamondThinstartSize=12;endArrow=openThin;endSize=12;strokeColor=#595959;exitX=1.000;exitY=0.566;exitDx=0;exitDy=0;entryX=0.000;entryY=0.375;entryDx=0;entryDy=0;" parent="1" source="node38" target="node26" edge="1">
          <mxGeometry width="50" height="50" relative="1" as="geometry">
            <Array as="points">
              <mxPoint x="1145" y="608" />
              <mxPoint x="1145" y="1409" />
            </Array>
          </mxGeometry>
        </mxCell>
        <mxCell id="label378" value="1" style="edgeLabel;resizable=0;html=1;align=left;verticalAlign=top;strokeColor=default;" parent="edge63" vertex="1" connectable="0">
          <mxGeometry x="763" y="593" as="geometry" />
        </mxCell>
        <mxCell id="label382" value="1" style="edgeLabel;resizable=0;html=1;align=left;verticalAlign=top;strokeColor=default;" parent="edge63" vertex="1" connectable="0">
          <mxGeometry x="1257" y="1394" as="geometry" />
        </mxCell>
        <mxCell id="label383" value="connection" style="edgeLabel;resizable=0;html=1;align=left;verticalAlign=top;strokeColor=default;" parent="edge63" vertex="1" connectable="0">
          <mxGeometry x="1497" y="1431" as="geometry" />
        </mxCell>
        <mxCell id="mJ9gjdbilEF3bu02Q4rf-1" value="&lt;h1&gt;&lt;font size=&quot;1&quot; style=&quot;&quot; face=&quot;GOST type A&quot;&gt;&lt;i style=&quot;font-size: 120px;&quot;&gt;UML диаграмма классов&lt;/i&gt;&lt;/font&gt;&lt;/h1&gt;" style="text;html=1;strokeColor=none;fillColor=none;align=center;verticalAlign=middle;whiteSpace=wrap;rounded=0;" parent="1" vertex="1">
          <mxGeometry x="828.5" y="-340" width="1480" height="210" as="geometry" />
        </mxCell>
        <mxCell id="mJ9gjdbilEF3bu02Q4rf-2" value="" style="rounded=0;whiteSpace=wrap;html=1;" parent="1" vertex="1">
          <mxGeometry x="3730" y="607" width="120" height="60" as="geometry" />
        </mxCell>
        <mxCell id="mJ9gjdbilEF3bu02Q4rf-3" value="" style="rounded=0;whiteSpace=wrap;html=1;" parent="1" vertex="1">
          <mxGeometry x="-760" y="600" width="120" height="123" as="geometry" />
        </mxCell>
        <mxCell id="mJ9gjdbilEF3bu02Q4rf-4" value="" style="rounded=0;whiteSpace=wrap;html=1;" parent="1" vertex="1">
          <mxGeometry x="1401" y="3460" width="120" height="60" as="geometry" />
        </mxCell>
      </root>
    </mxGraphModel>
  </diagram>
</mxfile>
